<svg width="70" height="70" fill="none" xmlns="http://www.w3.org/2000/svg"><g clip-path="url(#clip0_195_6850)" fill="#FFBC57"><path d="M35 0C15.67 0 0 15.67 0 35s15.67 35 35 35 35-15.67 35-35S54.33 0 35 0zm0 64.531C18.69 64.531 5.469 51.311 5.469 35 5.469 18.69 18.689 5.469 35 5.469c16.31 0 29.531 13.22 29.531 29.531 0 16.31-13.22 29.531-29.531 29.531z"/><path d="M35 17.5c-9.664 0-17.5 7.836-17.5 17.5S25.336 52.5 35 52.5 52.5 44.664 52.5 35 44.664 17.5 35 17.5zm-2.188 26.25l-6.562-6.563 3.062-3.499 3.5 3.5 9.844-10.938 3.282 3.5-13.126 14z"/></g><defs><clipPath id="clip0_195_6850"><path fill="#fff" d="M0 0h70v70H0z"/></clipPath></defs></svg>