<svg width="70" height="70" fill="none" xmlns="http://www.w3.org/2000/svg"><path d="M34.999 0C15.7 0 0 15.7 0 34.999 0 54.299 15.7 70 34.999 70c19.298 0 34.998-15.702 34.998-35.001C70 15.7 54.298 0 35 0zm19.337 32.44v.001l-10.132 7.331 3.902 11.927a1.886 1.886 0 01-2.896 2.119L35 46.431l-10.21 7.385a1.887 1.887 0 01-2.896-2.119l3.903-11.926-10.132-7.33v-.002a1.884 1.884 0 011.105-3.412h12.543l3.884-11.871a1.888 1.888 0 013.607 0l3.884 11.871h12.543a1.885 1.885 0 011.105 3.412z" fill="#FFBC57"/></svg>