<svg width="58" height="33" fill="none" xmlns="http://www.w3.org/2000/svg"><path d="M6.015 11.12v20.386c0 .556-.372.926-.93.926H1.36c-.559 0-.931-.37-.931-.926V11.12c0-.556.372-.927.93-.927h3.725a.93.93 0 01.931.927zm50.625-.927h-3.724c-.559 0-.931.37-.931.927v20.386c0 .556.372.926.93.926h3.725c.559 0 .931-.37.931-.926V11.12a.93.93 0 00-.93-.927zm-6.517 6.487v5.56c0 .555-.373.926-.931.926H8.808c-.559 0-.931-.37-.931-.927v-5.56c0-.555.372-.926.93-.926H49.19c.56 0 .932.37.932.927zM8.809 13.9h10.978c.558 0 .93-.371.93-.927V.927c0-.556-.372-.927-.93-.927H8.809c-.559 0-.931.37-.931.927v12.046c0 .556.372.927.93.927zm14.702 0H34.49c.559 0 .931-.371.931-.927V.927C35.42.37 35.048 0 34.49 0H23.511c-.559 0-.931.37-.931.927v12.046c0 .556.372.927.931.927zM49.191 0H38.215c-.56 0-.932.37-.932.927v12.046c0 .556.373.927.932.927H49.19c.56 0 .932-.371.932-.927V.927c0-.556-.373-.927-.931-.927zm0 25.02H8.81c-.559 0-.931.37-.931.926v5.56c0 .556.372.926.93.926H14.2c.559 0 .931-.37.931-.926v-.927h27.738v.927c0 .556.373.926.931.926h5.392c.558 0 .93-.37.93-.926v-5.56c0-.556-.372-.927-.93-.927z" fill="#FFBC57"/></svg>