<svg width="21" height="20" viewBox="0 0 21 20" fill="none" xmlns="http://www.w3.org/2000/svg">
<path d="M20.0014 7.67002C19.9383 7.48711 19.8234 7.32645 19.6708 7.20753C19.5181 7.0886 19.3342 7.01652 19.1414 7.00002L13.4514 6.17002L10.9014 1.00002C10.8196 0.830952 10.6917 0.688365 10.5325 0.588597C10.3734 0.488828 10.1893 0.435913 10.0014 0.435913C9.81359 0.435913 9.62953 0.488828 9.47035 0.588597C9.31118 0.688365 9.18333 0.830952 9.10144 1.00002L6.55144 6.16002L0.861442 7.00002C0.676365 7.02633 0.502366 7.10399 0.359193 7.22418C0.216019 7.34438 0.109402 7.5023 0.0514423 7.68002C-0.00161275 7.8537 -0.00637381 8.03854 0.03767 8.21472C0.0817139 8.39089 0.1729 8.55175 0.301442 8.68002L4.43144 12.68L3.43144 18.36C3.39107 18.5484 3.406 18.7445 3.47443 18.9247C3.54286 19.1048 3.66188 19.2613 3.81717 19.3754C3.97246 19.4895 4.15741 19.5563 4.34977 19.5678C4.54213 19.5792 4.7337 19.5349 4.90144 19.44L10.0014 16.77L15.1014 19.44C15.2418 19.5192 15.4003 19.5606 15.5614 19.56C15.7733 19.5608 15.9799 19.4942 16.1514 19.37C16.3066 19.2589 16.4267 19.1057 16.4976 18.9285C16.5684 18.7513 16.5871 18.5575 16.5514 18.37L15.5514 12.69L19.6814 8.69002C19.8258 8.5677 19.9325 8.40693 19.9892 8.22637C20.0458 8.04582 20.0501 7.8529 20.0014 7.67002ZM13.8514 11.67C13.7357 11.7824 13.6489 11.9212 13.5984 12.0744C13.5479 12.2276 13.5352 12.3908 13.5614 12.55L14.2814 16.75L10.5214 14.75C10.3753 14.6777 10.2145 14.6401 10.0514 14.6401C9.88841 14.6401 9.72757 14.6777 9.58144 14.75L5.82144 16.75L6.54144 12.55C6.56768 12.3908 6.55501 12.2276 6.50451 12.0744C6.45401 11.9212 6.36719 11.7824 6.25144 11.67L3.25144 8.67002L7.46144 8.06002C7.62344 8.03749 7.77744 7.97556 7.90994 7.87967C8.04244 7.78379 8.1494 7.65686 8.22144 7.51002L10.0014 3.70002L11.8814 7.52002C11.9535 7.66686 12.0604 7.79379 12.1929 7.88968C12.3254 7.98556 12.4794 8.04749 12.6414 8.07002L16.8514 8.68002L13.8514 11.67Z" fill="#FFBC57"/>
</svg>
