<svg width="20" height="20" fill="none" xmlns="http://www.w3.org/2000/svg"><path d="M16.984 3.016A9.878 9.878 0 103.016 16.984 9.878 9.878 0 1016.984 3.016zM15.591 15.59A7.903 7.903 0 1117.903 10a7.854 7.854 0 01-2.312 5.591z" fill="#FFBC57"/><path d="M13.705 6.295a.998.998 0 00-1.418 0L10 8.592 7.713 6.295a1.003 1.003 0 10-1.418 1.418L8.592 10l-2.297 2.287a.999.999 0 000 1.418.999.999 0 001.418 0L10 11.408l2.287 2.297a.999.999 0 001.418 0 .998.998 0 000-1.418L11.408 10l2.297-2.287a.998.998 0 000-1.418z" fill="#2B2929"/></svg>