<svg width="250" height="50" fill="none" xmlns="http://www.w3.org/2000/svg"><path d="M98.526 36.528h-3.633v-1.87h9.145v1.87h-3.633v9.223h-2.004v-9.223h.125zm14.532 9.223h-6.639V34.659h6.389v1.87h-4.51v2.741h4.009v1.87h-4.009v2.866h4.635v1.745h.125zm9.647-11.092h2.255l-3.758 5.359 3.884 5.608h-2.256l-2.881-4.112-2.882 4.112h-2.255l3.884-5.608-3.758-5.36h2.255l2.756 3.99 2.756-3.99zm13.781 11.092h-2.004v-4.736h-5.012v4.736h-2.004V34.659h2.004v4.487h5.137v-4.487h1.879V45.75zm2.882-5.484c0-1.62.501-2.99 1.628-4.113 1.128-1.121 2.506-1.62 4.135-1.62 1.628 0 3.006.499 4.134 1.62 1.127 1.122 1.628 2.493 1.628 4.113 0 1.62-.501 2.991-1.628 4.113-1.128 1.122-2.506 1.62-4.134 1.62-1.629 0-3.007-.498-4.135-1.62-1.127-1.122-1.628-2.493-1.628-4.113zm2.004 0c0 1.122.376 1.994 1.002 2.742.627.748 1.629 1.122 2.631 1.122 1.128 0 2.005-.374 2.756-1.122.627-.748 1.003-1.62 1.003-2.742 0-1.121-.376-2.118-1.128-2.742-.752-.747-1.629-1.121-2.631-1.121-1.127 0-2.004.374-2.631 1.121-.626.624-1.002 1.62-1.002 2.742zm20.546 5.484h-1.879v-9.223h-3.257l-.251 2.12c-.125 1.245-.25 2.367-.501 3.24-.251.872-.376 1.62-.626 2.118-.251.499-.502.997-.877 1.246-.376.25-.627.499-1.003.499-.375.125-.751.125-1.252 0v-1.87h.626c.125 0 .376-.249.501-.498.251-.25.376-.623.501-1.122.376-1.121.627-2.866.877-5.359l.125-2.243h7.016V45.75zm2.882-5.484c0-1.62.501-2.99 1.628-4.113 1.128-1.121 2.506-1.62 4.135-1.62 1.628 0 3.006.499 4.134 1.62 1.127 1.122 1.629 2.493 1.629 4.113 0 1.62-.502 2.991-1.629 4.113-1.128 1.122-2.506 1.62-4.134 1.62-1.629 0-3.007-.498-4.135-1.62-1.127-1.122-1.628-2.493-1.628-4.113zm2.129 0c0 1.122.376 1.994 1.003 2.742.626.748 1.628 1.122 2.631 1.122 1.127 0 2.004-.374 2.756-1.122.626-.748 1.002-1.62 1.002-2.742 0-1.121-.376-2.118-1.127-2.742-.752-.747-1.629-1.121-2.631-1.121-1.128 0-2.005.374-2.631 1.121-.752.624-1.003 1.62-1.003 2.742zm14.283 5.484h-2.005V34.659h6.264v1.87h-4.259v9.222zm8.895 0h-2.005V34.659h2.005V45.75zm2.881-12.962c0-.249.125-.498.251-.747.25-.125.501-.25.751-.25.251 0 .501.125.752.25.251.124.251.374.251.747 0 .374-.126.624-.251.748-.125.125-.376.25-.752.25-.25 0-.501-.125-.751-.25-.126-.249-.251-.498-.251-.748zm3.257 12.962h-2.004V34.659h2.004V45.75zm-.626-12.962c0-.249.125-.498.25-.747.251-.125.502-.25.752-.25.251 0 .501.125.752.25.25.249.25.374.25.747 0 .374-.125.624-.25.748-.125.25-.376.25-.752.25s-.626-.125-.752-.25c-.125-.249-.25-.498-.25-.748zm16.286 10.47l.752 1.495c-.376.374-.877.623-1.503.872a5.702 5.702 0 01-2.005.374c-1.754 0-3.132-.498-4.134-1.62-1.002-.997-1.629-2.368-1.629-4.113 0-1.62.501-2.99 1.504-4.113 1.002-1.121 2.38-1.62 4.134-1.62 1.378 0 2.506.374 3.383 1.122l-.877 1.495a4.536 4.536 0 00-2.506-.747c-1.002 0-1.879.374-2.631.997-.626.748-1.002 1.62-1.002 2.866 0 1.122.376 2.119 1.002 2.867.752.748 1.629 1.121 2.756 1.121 1.128-.124 2.005-.373 2.756-.997zm12.278 2.492h-1.879v-4.736h-5.137v4.736h-2.004V34.659h2.004v4.487h5.137v-4.487h1.879V45.75zm10.9-11.092h2.004l-3.758 8.475c-.376.872-.877 1.495-1.253 1.994-.501.374-1.002.623-1.754.623s-1.128-.125-1.504-.499l.627-1.62c.25.125.501.25.877.25.501 0 .877-.25 1.127-.748l.126-.374-4.886-8.101h2.255l3.633 6.231 2.506-6.231zM92.645 15.715l10.774 13.086h-6.89l-8.645-10.843v10.843h-5.387V4.25h5.387v9.97l8.269-9.97h6.64L92.645 15.715zm109.871-6.356h7.517V28.8h5.387V9.36h7.517V4.25h-20.546v5.11h.125zm-83.562 9.596l7.642 9.846h-6.515l-6.389-8.724h-2.004v8.724H106.3V4.25h7.768c7.517 0 9.145 4.238 9.145 7.852 0 1.87-.501 3.49-1.503 4.736-.877.872-1.754 1.62-2.756 2.118zm-6.64-9.596h-.626v5.608h2.004c1.128 0 2.13-.249 2.881-.872.627-.499 1.003-1.247 1.003-2.119 0-1.246-.376-2.742-3.759-2.742h-.501c-.25.125-.626.125-1.002.125zm81.558-5.11l10.398 24.552h-5.763l-2.38-5.982h-9.145l-2.381 5.982h-5.512L189.362 4.25h4.51zm-2.38 7.478l-2.506 5.982h5.011l-2.505-5.982zm58.005 4.86c0 3.615-1.253 6.73-3.633 9.098-2.381 2.368-5.513 3.615-9.146 3.615-3.633 0-6.765-1.122-9.145-3.49-2.381-2.368-3.633-5.36-3.633-9.098 0-3.49 1.252-6.605 3.633-8.973 2.38-2.368 5.512-3.614 9.145-3.614s6.765 1.121 9.146 3.49c2.38 2.118 3.633 5.233 3.633 8.972zm-7.517 5.36c1.378-1.496 2.005-3.24 2.005-5.484 0-2.244-.627-3.988-2.13-5.484-1.378-1.37-3.132-2.119-5.137-2.119-2.13 0-3.758.748-5.136 2.12-1.378 1.37-2.005 3.24-2.005 5.483 0 2.243.627 3.988 2.005 5.359 1.378 1.495 3.006 2.119 5.136 2.119 2.255.124 3.884-.499 5.262-1.994zM176.082 4.248l-6.264 16.202-6.515-16.202h-5.763L167.688 28.8h4.009l9.897-24.552h-5.512z" fill="#fff"/><path d="M153.102 6.494c-1.507-1.496-3.517-2.37-5.652-2.37-2.135 0-4.144.874-5.651 2.37l-.377.374-.503-.498C139.412 4.873 137.403 4 135.268 4c-2.136 0-4.145.873-5.652 2.37-1.507 1.496-2.387 3.492-2.387 5.612s.88 4.116 2.387 5.612l10.927 10.85c.251.25.502.375.879.375s.628-.125.879-.375l10.927-10.85c1.507-1.497 2.386-3.492 2.386-5.612s-.879-3.991-2.512-5.488z" fill="#00B5FF"/><mask id="a" style="mask-type:alpha" maskUnits="userSpaceOnUse" x="127" y="4" width="29" height="25"><path d="M153.102 6.494c-1.507-1.496-3.517-2.37-5.652-2.37-2.135 0-4.144.874-5.651 2.37l-.377.374-.503-.498C139.412 4.873 137.403 4 135.268 4c-2.136 0-4.145.873-5.652 2.37-1.507 1.496-2.387 3.492-2.387 5.612s.88 4.116 2.387 5.612l10.927 10.85c.251.25.502.375.879.375s.628-.125.879-.375l10.927-10.85c1.507-1.497 2.386-3.492 2.386-5.612s-.879-3.991-2.512-5.488z" fill="#00B5FF"/></mask><g mask="url(#a)"><path fill="#FFBC00" d="M126.293 14.323h30.067v15.084h-30.067z"/></g><path d="M7.235 18.4v26.4c0 .72-.483 1.2-1.206 1.2H1.206C.482 46 0 45.52 0 44.8V18.4c0-.72.482-1.2 1.206-1.2h4.823c.723 0 1.206.6 1.206 1.2zm65.56-1.2H67.97c-.723 0-1.206.48-1.206 1.2v26.4c0 .72.483 1.2 1.206 1.2h4.823c.724 0 1.206-.48 1.206-1.2V18.4c0-.6-.482-1.2-1.206-1.2zm-8.441 8.4v7.2c0 .72-.483 1.2-1.206 1.2H10.852c-.723 0-1.206-.48-1.206-1.2v-7.2c0-.72.483-1.2 1.206-1.2h52.296c.723 0 1.206.48 1.206 1.2zM10.852 22H25.07c.723 0 1.205-.48 1.205-1.2V5.2c0-.72-.482-1.2-1.205-1.2H10.852c-.723 0-1.206.48-1.206 1.2v15.6c0 .72.483 1.2 1.206 1.2zm19.04 0h14.216c.724 0 1.206-.48 1.206-1.2V5.2c0-.72-.482-1.2-1.206-1.2H29.892c-.724 0-1.206.48-1.206 1.2v15.6c0 .72.482 1.2 1.206 1.2zM63.148 4H48.93c-.723 0-1.205.48-1.205 1.2v15.6c0 .72.482 1.2 1.205 1.2h14.217c.723 0 1.206-.48 1.206-1.2V5.2c0-.72-.483-1.2-1.206-1.2zm0 32.4H10.852c-.723 0-1.206.48-1.206 1.2v7.2c0 .72.483 1.2 1.206 1.2h6.982c.723 0 1.206-.48 1.206-1.2v-1.2h35.92v1.2c0 .72.483 1.2 1.206 1.2h6.982c.723 0 1.206-.48 1.206-1.2v-7.2c0-.72-.483-1.2-1.206-1.2z" fill="#FFBC57"/></svg>