<svg width="27" height="26" fill="none" xmlns="http://www.w3.org/2000/svg"><path d="M22.844 14.341c-.288 0-.59-.091-.877-.157a12.357 12.357 0 01-1.714-.51 2.616 2.616 0 00-3.245 1.309l-.288.588a15.939 15.939 0 01-3.48-2.617 15.938 15.938 0 01-2.617-3.48l.55-.367a2.617 2.617 0 001.307-3.245 13.53 13.53 0 01-.51-1.714 9.732 9.732 0 01-.157-.89A3.925 3.925 0 007.888 0H3.962A3.925 3.925 0 00.037 4.462 24.86 24.86 0 0021.653 26h.497a3.925 3.925 0 002.617-.994 3.925 3.925 0 001.309-2.945v-3.925a3.926 3.926 0 00-3.232-3.795zm.654 7.851a1.31 1.31 0 01-.445.982 1.375 1.375 0 01-1.073.327A22.244 22.244 0 012.732 4.16a1.426 1.426 0 01.327-1.073 1.308 1.308 0 01.982-.444h3.925a1.308 1.308 0 011.309 1.033c.052.358.118.711.196 1.06.151.69.352 1.368.602 2.028l-1.832.85A1.309 1.309 0 007.6 9.357a18.96 18.96 0 009.16 9.16c.318.13.675.13.994 0a1.309 1.309 0 00.746-.68l.81-1.833c.677.242 1.368.443 2.068.602.35.079.703.144 1.06.196a1.308 1.308 0 011.034 1.309l.026 4.082z" fill="#B1B1B1"/></svg>