<svg width="34" height="34" fill="none" xmlns="http://www.w3.org/2000/svg"><path d="M15.817 22.483c-.072.08-.139.163-.2.25a1.27 1.27 0 00-.15.3 1.07 1.07 0 00-.1.3 2.289 2.289 0 000 .334 1.4 1.4 0 00.133.633 1.5 1.5 0 00.9.9 1.568 1.568 0 001.267 0 1.5 1.5 0 00.9-.9c.074-.203.108-.418.1-.633a1.665 1.665 0 00-2.308-1.548 1.667 1.667 0 00-.542.364zM17 .334a16.667 16.667 0 100 33.334A16.667 16.667 0 0017 .333zm0 30a13.333 13.333 0 110-26.666 13.333 13.333 0 010 26.666zm0-21.666a5 5 0 00-4.333 2.5 1.667 1.667 0 102.883 1.667A1.667 1.667 0 0117 12a1.667 1.667 0 010 3.334A1.666 1.666 0 0015.334 17v1.667a1.666 1.666 0 103.333 0v-.3A5 5 0 0017 8.667z" fill="#FFBC57"/></svg>