<svg width="40" height="40" fill="none" xmlns="http://www.w3.org/2000/svg"><circle cx="20" cy="20" r="17" fill="#fff"/><path d="M27.68 11.36c.32.32.48.8.48 1.28s-.16.96-.48 1.28c-.32.16-.8.48-1.12.48-.48 0-.96-.16-1.28-.48-.32-.32-.48-.8-.48-1.28s.16-.96.48-1.28c.32-.32.8-.48 1.28-.48.32 0 .8.16 1.12.48zM20 13.76c-3.52 0-6.24 2.88-6.24 6.24 0 3.36 2.88 6.24 6.24 6.24 3.52 0 6.24-2.88 6.24-6.24 0-3.36-2.72-6.24-6.24-6.24zM40 20c0 11.04-8.96 20-20 20S0 31.04 0 20 8.96 0 20 0s20 8.96 20 20zm-8.16-3.68c0-2.24-.8-4.16-2.4-5.76-1.6-1.6-3.52-2.4-5.76-2.4h-7.52c-2.24 0-4.16.8-5.76 2.4-1.6 1.6-2.4 3.52-2.4 5.76v7.52c0 2.24.8 4.16 2.4 5.76 1.6 1.6 3.52 2.4 5.76 2.4h7.52c2.24 0 4.16-.8 5.76-2.4 1.6-1.6 2.4-3.52 2.4-5.76v-7.52z" fill="#AF24D1"/></svg>