<svg width="40" height="40" fill="none" xmlns="http://www.w3.org/2000/svg"><g clip-path="url(#clip0_68_391)"><path d="M20 40c11.046 0 20-8.954 20-20S31.046 0 20 0 0 8.954 0 20s8.954 20 20 20z" fill="#6F3FAA"/><path d="M30.58 14.057l-.006-.027c-.535-2.16-2.944-4.478-5.156-4.96l-.025-.006a28.653 28.653 0 00-10.785 0l-.026.005c-2.212.483-4.621 2.8-5.156 4.961l-.006.027a21.11 21.11 0 000 9.093l.006.027c.512 2.068 2.742 4.28 4.872 4.888v2.411c0 .873 1.064 1.302 1.668.672l2.444-2.54a28.757 28.757 0 006.983-.465l.024-.006c2.213-.482 4.622-2.8 5.157-4.96l.006-.027c.66-3.017.66-6.076 0-9.093zm-1.933 8.656c-.357 1.41-2.186 3.161-3.64 3.485-1.903.362-3.82.517-5.736.464a.135.135 0 00-.102.04l-1.784 1.832-1.897 1.948a.222.222 0 01-.383-.154v-3.995a.138.138 0 00-.112-.135c-1.454-.324-3.283-2.076-3.64-3.485a19.156 19.156 0 010-8.219c.357-1.41 2.186-3.162 3.64-3.485a26.687 26.687 0 0110.014 0c1.454.323 3.283 2.076 3.64 3.485a19.136 19.136 0 010 8.219z" fill="#fff"/><path d="M23.162 24.557c-.224-.068-.437-.113-.634-.195-2.05-.85-3.936-1.947-5.43-3.629-.849-.956-1.514-2.035-2.076-3.178-.267-.541-.491-1.104-.72-1.664-.209-.51.099-1.037.422-1.421a3.34 3.34 0 011.119-.84c.33-.159.656-.067.897.213.522.605 1.002 1.242 1.39 1.944.238.432.173.96-.26 1.253-.105.072-.2.156-.299.236a.98.98 0 00-.225.238.652.652 0 00-.044.572c.534 1.466 1.433 2.606 2.908 3.22.236.098.473.212.745.18.456-.053.603-.552.922-.813.312-.255.71-.259 1.047-.046.336.213.662.441.986.672.318.227.634.448.927.706.282.249.38.575.22.911-.29.618-.713 1.131-1.323 1.459-.172.092-.378.122-.572.182.194-.06-.224-.068 0 0zm-3.156-11.633c2.68.075 4.881 1.854 5.353 4.504.08.451.11.913.145 1.371.015.193-.094.376-.302.379-.215.002-.312-.177-.326-.37-.027-.381-.046-.765-.099-1.143-.277-1.997-1.87-3.648-3.857-4.003-.3-.053-.605-.067-.908-.1-.192-.02-.442-.03-.485-.269-.035-.2.133-.358.323-.369.052-.003.104 0 .155 0 2.681.075-.051 0 0 0z" fill="#fff"/><path d="M24.08 18.204c-.005.034-.007.113-.027.187-.071.269-.48.302-.573.03a.81.81 0 01-.032-.258c-.001-.568-.125-1.135-.411-1.629a3.032 3.032 0 00-1.271-1.193 3.657 3.657 0 00-1.013-.31c-.153-.026-.308-.041-.461-.063-.186-.025-.286-.144-.277-.327a.289.289 0 01.321-.285c.616.035 1.21.168 1.757.458 1.112.589 1.747 1.518 1.932 2.76.009.056.022.111.027.168.01.139.017.278.027.462-.004.034-.01-.184 0 0z" fill="#fff"/><path d="M22.412 18.14c-.224.003-.344-.12-.367-.326-.016-.143-.03-.289-.063-.428a1.204 1.204 0 00-.445-.698 1.167 1.167 0 00-.362-.175c-.165-.047-.335-.034-.5-.074-.178-.044-.276-.189-.248-.356a.322.322 0 01.34-.258c1.039.075 1.782.612 1.888 1.835.007.087.016.178-.003.26a.269.269 0 01-.24.22c.102-.008-.224.003 0 0zm.75 6.417c-.224-.068.194-.06 0 0zm-3.15-11.633zm-.006 0h.007c.149.005 2.568.072-.007 0zm4.074 5.281c-.011-.184-.005.033 0 0z" fill="#fff"/><path d="M22.412 18.14c.004 0 .007-.002.01-.003l-.039.001.029.002z" fill="#fff"/><path d="M22.412 18.14l-.029-.002a.412.412 0 00.029.002zm.01-.003l-.01.003c.026-.002.024-.003.01-.003z" fill="#fff"/></g><defs><clipPath id="clip0_68_391"><path fill="#fff" d="M0 0h40v40H0z"/></clipPath></defs></svg>