<svg width="79" height="74" viewBox="0 0 79 74" fill="none" xmlns="http://www.w3.org/2000/svg">
<path d="M37.4 73.5C45.132 73.5 51.4 67.232 51.4 59.5C51.4 51.768 45.132 45.5 37.4 45.5C29.668 45.5 23.4 51.768 23.4 59.5C23.4 67.232 29.668 73.5 37.4 73.5Z" fill="#FFBC57"/>
<path d="M12 34.5C18.6274 34.5 24 29.1274 24 22.5C24 15.8726 18.6274 10.5 12 10.5C5.37258 10.5 0 15.8726 0 22.5C0 29.1274 5.37258 34.5 12 34.5Z" fill="#FFBC57"/>
<path d="M58.6 45C69.6457 45 78.6 36.0457 78.6 25C78.6 13.9543 69.6457 5 58.6 5C47.5543 5 38.6 13.9543 38.6 25C38.6 36.0457 47.5543 45 58.6 45Z" fill="#FFBC57"/>
<path d="M69.8001 31.2002L41.8 21.2002L13.8 31.2002L41.8 41.2002L69.8001 31.2002Z" fill="white"/>
<path d="M36.8 23L13.8 31.2L36.8 39.5V23Z" fill="white"/>
<path d="M64 33.2999L41.8 25.3999V41.1999L64 33.2999Z" fill="white"/>
<path d="M41.8 41.9999C41.7 41.9999 41.6 41.9999 41.5 41.9999L13.5 31.9999C13.2 31.8999 13 31.5999 13 31.2999C13 30.9999 13.2 30.6999 13.5 30.5999L41.5 20.5999C41.7 20.4999 41.8 20.4999 42 20.5999L70 30.5999C70.3 30.6999 70.5 30.9999 70.5 31.2999C70.5 31.5999 70.3 31.8999 70 31.9999L42 41.9999C41.9 41.9999 41.8 41.9999 41.8 41.9999ZM16 31.1999L41.8 40.3999L67.6 31.1999L41.8 21.9999L16 31.1999Z" fill="#2B2929"/>
<path d="M37.8 14.2002L9.80005 24.2002L13.8 31.2002L41.8 21.2002L37.8 14.2002Z" fill="white"/>
<path d="M41.8 21.2002L37.8 14.2002L31.5 16.5002L32.8 18.8002C33.4 19.9002 32.9001 21.3002 31.7001 21.7002L12.3 28.6002L13.8 31.2002L41.8 21.2002Z" fill="white"/>
<path d="M13.8 32C13.5 32 13.3 31.9 13.1 31.6L9.10002 24.6C9.00002 24.4 9.00002 24.2 9.10002 24C9.20002 23.8 9.30002 23.6 9.60002 23.6L37.6 13.6C37.9 13.5 38.3 13.6 38.5 13.9L42.5 20.9C42.6 21.1 42.6 21.3 42.6 21.5C42.5 21.7 42.4 21.9 42.1 21.9L14 32C13.9 32 13.8 32 13.8 32ZM10.9 24.7L14.1 30.4L40.7 20.9L37.5 15.2L10.9 24.7Z" fill="#2B2929"/>
<path d="M45.8 14.2002L73.8001 24.2002L69.8001 31.2002L41.8 21.2002L45.8 14.2002Z" fill="white"/>
<path d="M69.8 32.0001C69.7 32.0001 69.6 32.0001 69.5 32.0001L41.5 22.0001C41.3 21.9001 41.1 21.8001 41 21.6001C40.9 21.4001 40.9 21.2001 41.1 21.0001L45.1 14.0001C45.3 13.7001 45.7 13.5001 46 13.7001L74 23.7001C74.2 23.8001 74.4 23.9001 74.5 24.1001C74.6 24.3001 74.6 24.5001 74.4 24.7001L70.4 31.7001C70.3 31.9001 70 32.0001 69.8 32.0001ZM42.9 20.8001L69.5 30.3001L72.7 24.6001L46.1 15.1001L42.9 20.8001Z" fill="#2B2929"/>
<path d="M41.8 66.2002L13.8 56.2002V31.2002L41.8 41.2002V66.2002Z" fill="white"/>
<path d="M35.4001 59.8002L13.8 52.0002V31.2002L36.8 39.4002V58.8002C36.8 59.5002 36.1001 60.0002 35.4001 59.8002Z" fill="white"/>
<path d="M41.8 67C41.7 67 41.6 67 41.5 67L13.5 57C13.2 56.9 13 56.6 13 56.3V31.3C13 31.1 13.1 30.8 13.3 30.7C13.5 30.6 13.8 30.5 14 30.6L42 40.6C42.3 40.7 42.5 41 42.5 41.3V66.3C42.5 66.5 42.4 66.8 42.2 66.9C42.1 67 41.9 67 41.8 67ZM14.5 55.7L41 65.2V41.8L14.5 32.3V55.7Z" fill="#2B2929"/>
<path d="M37.8 48.2002L9.80005 38.2002L13.8 31.2002L41.8 41.2002L37.8 48.2002Z" fill="white"/>
<path d="M33.2 43.7002L11.2 35.8002L13.8 31.2002L37.4 39.6002L35.5999 42.7002C35.0999 43.6002 34.1 44.0002 33.2 43.7002Z" fill="white"/>
<path d="M37.8 49C37.7 49 37.6 49 37.5 49L9.5 39C9.3 38.9 9.1 38.8 9 38.6C9 38.3 9 38.1 9.1 37.9L13.1 30.9C13.3 30.6 13.7 30.4 14 30.6L42 40.6C42.2 40.7 42.4 40.8 42.5 41C42.6 41.2 42.6 41.4 42.4 41.6L38.4 48.6C38.3 48.9 38 49 37.8 49ZM10.9 37.8L37.5 47.3L40.7 41.6L14.1 32.1L10.9 37.8Z" fill="#2B2929"/>
<path d="M41.8 66.2002L69.8001 56.2002V31.2002L41.8 41.2002V66.2002Z" fill="white"/>
<path d="M41.8 61.8002L64.5 53.7002C65.3 53.4002 65.8001 52.7002 65.8001 51.8002V32.7002L41.8 41.3002V61.8002Z" fill="white"/>
<path d="M41.8 67C41.6 67 41.5 67 41.4 66.9C41.2 66.8 41.1 66.5 41.1 66.3V41.3C41.1 41 41.3 40.7 41.6 40.6L69.6 30.6C69.8 30.5 70.1 30.6 70.3 30.7C70.5 30.8 70.6 31.1 70.6 31.3V56.3C70.6 56.6 70.4 56.9 70.1 57L42 67C41.9 67 41.8 67 41.8 67ZM42.5 41.8V65.2L69 55.7V32.3L42.5 41.8Z" fill="#2B2929"/>
<path d="M45.8 48.2002L73.8001 38.2002L69.8001 31.2002L41.8 41.2002L45.8 48.2002Z" fill="white"/>
<path d="M44.3 45.5998L65.5 37.9998C66.7001 37.5998 67.2 36.1998 66.6 35.0998L65.3001 32.7998L41.8 41.1998L44.3 45.5998Z" fill="white"/>
<path d="M45.8 49C45.5 49 45.3 48.9 45.1 48.6L41.1 41.6C41 41.4 41 41.2 41.1 41C41.2 40.8 41.3 40.6 41.6 40.6L69.6 30.6C69.9 30.5 70.3 30.6 70.5 30.9L74.5 37.9C74.6 38.1 74.6 38.3 74.6 38.5C74.5 38.7 74.4 38.9 74.1 38.9L46 49C45.9 49 45.8 49 45.8 49ZM42.9 41.7L46.1 47.4L72.7 37.9L69.5 32.2L42.9 41.7Z" fill="#2B2929"/>
<path d="M47.8 15.5002V35.8002H35.8V15.5002H27.8L41.8 1.2002L55.7001 15.5002H47.8Z" fill="white"/>
<path d="M42.3 35H36.5V15.5C36.5 15.1 36.2 14.7 35.7 14.7H29.5L41.8 2.3L45 5.6C45.1 5.7 45.2 5.7 45.3 5.6L46 4.8C46.1 4.7 46.1 4.6 46 4.5L42.3 0.7C42.2 0.6 42 0.5 41.8 0.5C41.6 0.5 41.4 0.6 41.3 0.7L27.2 15C27 15.2 26.9 15.5 27 15.8C27.1 16.1 27.4 16.3 27.7 16.3H35V35.8C35 36.2 35.3 36.6 35.8 36.6H42.3C42.4 36.6 42.5 36.5 42.5 36.4V35.3C42.5 35.1 42.4 35 42.3 35Z" fill="#FFBC57"/>
<path d="M47 5.9002L46.2 6.7002C46.1 6.8002 46.1 6.9002 46.2 7.0002L53.9 14.8002H47.7C47.3 14.8002 46.9 15.1002 46.9 15.6002V35.0002H44.1C44 35.0002 44 35.1002 44 35.2002V36.3002C44 36.4002 44.1 36.5002 44.2 36.5002H47.8C48.2 36.5002 48.6 36.2002 48.6 35.7002V16.3002H55.8C56.1 16.3002 56.4 16.1002 56.5 15.8002C56.6 15.5002 56.6 15.2002 56.3 15.0002L47.4 5.9002C47.3 5.8002 47.1 5.8002 47 5.9002Z" fill="#2B2929"/>
</svg>
