<svg width="80" height="78" viewBox="0 0 80 78" fill="none" xmlns="http://www.w3.org/2000/svg">
<path d="M13.9651 72.8179C21.6778 72.8179 27.9302 66.5655 27.9302 58.8528C27.9302 51.1401 21.6778 44.8877 13.9651 44.8877C6.25238 44.8877 0 51.1401 0 58.8528C0 66.5655 6.25238 72.8179 13.9651 72.8179Z" fill="#FFBC57"/>
<path d="M36.2096 23.9402C42.8205 23.9402 48.1797 18.581 48.1797 11.9701C48.1797 5.35919 42.8205 0 36.2096 0C29.5987 0 24.2395 5.35919 24.2395 11.9701C24.2395 18.581 29.5987 23.9402 36.2096 23.9402Z" fill="#FFBC57"/>
<path d="M60.0497 77.8055C71.0679 77.8055 79.9999 68.8735 79.9999 57.8554C79.9999 46.8372 71.0679 37.9053 60.0497 37.9053C49.0316 37.9053 40.0996 46.8372 40.0996 57.8554C40.0996 68.8735 49.0316 77.8055 60.0497 77.8055Z" fill="#FFBC57"/>
<path d="M41.1971 72.7183C58.8261 72.7183 73.1173 58.4272 73.1173 40.7981C73.1173 23.1691 58.8261 8.87793 41.1971 8.87793C23.568 8.87793 9.27686 23.1691 9.27686 40.7981C9.27686 58.4272 23.568 72.7183 41.1971 72.7183Z" fill="white"/>
<path d="M41.197 73.4167C23.1421 73.4167 8.47876 58.7534 8.47876 40.6985C8.47876 22.6437 23.1421 8.08008 41.197 8.08008C59.2518 8.08008 73.8154 22.7434 73.8154 40.7983C73.8154 58.8532 59.1521 73.4167 41.197 73.4167ZM41.197 9.57634C23.9401 9.57634 9.97502 23.5414 9.97502 40.7983C9.97502 57.9554 23.9401 72.0202 41.197 72.0202C58.3541 72.0202 72.4189 58.0551 72.4189 40.7983C72.3192 23.5414 58.3541 9.57634 41.197 9.57634Z" fill="#2B2929"/>
<path d="M40.5985 28.8276L34.3142 24.6381C30.2244 21.9449 24.8379 22.5434 21.5461 26.1344L16.2593 31.8202C15.2618 32.9174 14.763 34.3139 14.9625 35.8102L18.9526 67.2316C19.1521 68.8277 20.6483 70.0247 22.2443 69.8252L43.99 67.1319C45.586 66.9324 46.783 65.4361 46.5835 63.8401L42.6932 32.4187C42.5935 30.9224 41.7955 29.6257 40.5985 28.8276Z" fill="white"/>
<path d="M21.9452 70.5238C21.1472 70.5238 20.3492 70.2245 19.6509 69.7258C18.8529 69.1273 18.3542 68.2295 18.2544 67.232L14.3642 35.9103C14.1647 34.2146 14.6634 32.5188 15.8604 31.3218L21.1472 25.636C24.7382 21.7457 30.5238 21.0475 34.9128 24.04L41.1971 28.2295C42.5936 29.1273 43.4913 30.6235 43.6908 32.3193L47.5811 63.7407C47.6809 64.7383 47.4814 65.7358 46.7831 66.5338C46.1846 67.3318 45.2869 67.8305 44.2893 67.9303L22.5437 70.6235C22.2445 70.5238 22.045 70.5238 21.9452 70.5238ZM28.828 23.641C26.3342 23.641 23.9402 24.6385 22.1447 26.6335L16.8579 32.3193C16.0599 33.2171 15.6609 34.5138 15.7607 35.7108L19.6509 67.0325C19.7507 67.631 20.0499 68.1298 20.5487 68.5288C21.0475 68.9278 21.646 69.0275 22.2445 69.0275L43.9901 66.3343C44.5886 66.2345 45.0874 65.9353 45.4864 65.4365C45.8854 64.9378 45.9851 64.3393 45.9851 63.7407L42.0948 32.3193C41.8953 31.1223 41.2968 30.025 40.2993 29.3268L33.9153 25.237C32.419 24.2395 30.6235 23.641 28.828 23.641Z" fill="#2B2929"/>
<path d="M46.0848 19.0526L38.9028 16.7583C34.3142 15.2621 29.2269 17.3568 27.0324 21.7459L23.5412 28.6287C22.9427 29.9254 22.9427 31.5214 23.5412 32.8182L35.9102 61.9454C36.6085 63.4416 38.3043 64.1399 39.8005 63.5414L60.0499 54.8631C61.5462 54.2646 62.2444 52.4691 61.6459 50.9728L49.1771 21.8456C48.5786 20.5489 47.4813 19.5514 46.0848 19.0526Z" fill="white"/>
<path d="M38.6035 64.4391C37.1073 64.4391 35.8105 63.5413 35.1123 62.1448L22.8429 33.1174C22.1447 31.5213 22.2444 29.8256 22.9427 28.3293L26.434 21.4465C28.828 16.7583 34.2145 14.464 39.202 16.06L46.3841 18.3543C47.9801 18.853 49.2768 20.05 49.8754 21.5463L62.2444 50.6735C63.0424 52.5687 62.1447 54.7632 60.2494 55.5612L40.0998 64.1398C39.601 64.3393 39.1023 64.4391 38.6035 64.4391ZM35.9103 17.0575C32.5187 17.0575 29.4265 18.9528 27.8305 22.1448L24.3392 29.0276C23.7407 30.1248 23.7407 31.4216 24.2394 32.6186L36.6085 61.646C37.1073 62.7433 38.404 63.3418 39.601 62.843L59.7507 54.2645C60.8479 53.7657 61.4464 52.469 60.9477 51.272L48.4788 22.1448C47.9801 21.0475 47.0823 20.1498 45.8853 19.7508L38.7033 17.4565C37.8055 17.1573 36.808 17.0575 35.9103 17.0575Z" fill="#2B2929"/>
<path d="M35.8105 31.4216C35.1123 31.4216 34.5138 31.3219 33.8155 31.0226C32.5188 30.5239 31.5213 29.5264 30.9228 28.2296C30.3243 26.9329 30.3243 25.5364 30.9228 24.2396C31.4215 22.9428 32.419 21.9453 33.7158 21.3468C35.0125 20.7483 36.409 20.7483 37.7058 21.3468C39.0026 21.8456 40.0001 22.8431 40.5986 24.1398C41.1971 25.4366 41.1971 26.8331 40.5986 28.1299C40.0998 29.4266 39.1023 30.4241 37.8055 31.0226C37.207 31.2221 36.5088 31.4216 35.8105 31.4216ZM35.8105 22.4441C35.3118 22.4441 34.813 22.5438 34.3143 22.7433C33.4165 23.1423 32.7183 23.8406 32.3193 24.7383C31.9203 25.6361 31.9203 26.6336 32.3193 27.6311C32.7183 28.5289 33.4165 29.2271 34.3143 29.6261C35.212 30.0251 36.2095 30.0251 37.207 29.6261C38.1048 29.2271 38.8031 28.5289 39.2021 27.6311C39.6011 26.7334 39.6011 25.7359 39.2021 24.7383C38.8031 23.8406 38.1048 23.1423 37.1073 22.7433C36.808 22.5438 36.3093 22.4441 35.8105 22.4441Z" fill="#2B2929"/>
<path d="M37.4063 27.4314C36.2093 27.4314 35.4113 26.8329 35.0123 26.3341C34.1146 25.2369 34.0148 23.5411 34.6133 21.4464C34.7131 21.0473 35.1121 20.8478 35.5111 20.9476C35.9101 21.0473 36.1096 21.4464 36.0098 21.8454C35.5111 23.3416 35.6108 24.7381 36.1096 25.3366C36.4088 25.7356 36.9076 25.8354 37.5061 25.8354C39.9001 25.6359 43.2916 22.5436 44.8876 19.0523C46.0846 16.5586 45.8851 14.8628 45.3864 14.1646C45.0871 13.7656 44.5884 13.5661 43.9899 13.5661C42.4936 13.6658 40.4986 14.9626 38.8029 16.9576C38.5036 17.2568 38.1046 17.3566 37.7056 17.0573C37.4063 16.7581 37.3066 16.3591 37.6058 15.9601C39.6009 13.6658 41.8951 12.1695 43.8901 11.97C45.0871 11.8703 46.0846 12.2693 46.6831 13.167C47.6807 14.5636 47.4812 16.9576 46.2841 19.5511C44.3889 23.6409 40.5984 27.0324 37.6058 27.2319C37.6058 27.4314 37.5061 27.4314 37.4063 27.4314Z" fill="#2B2929"/>
<path d="M39.7006 57.5562C39.6008 57.5562 39.5011 57.5562 39.4013 57.4565C39.0023 57.257 38.8028 56.858 39.0023 56.459L47.9799 34.2146C48.1794 33.8156 48.5784 33.6161 48.9774 33.8156C49.3764 34.0151 49.5759 34.4141 49.3764 34.8131L40.3988 57.0575C40.2991 57.3567 39.9998 57.5562 39.7006 57.5562Z" fill="#FFBC57"/>
<path d="M39.8004 41.6958C40.4986 43.1921 39.7006 44.9876 38.2044 45.6858C36.7081 46.3841 34.9126 45.5861 34.2144 44.0898C33.5161 42.5936 34.3141 40.7981 35.8104 40.0998C37.4064 39.4015 39.2019 40.0998 39.8004 41.6958Z" fill="white"/>
<path d="M37.0074 46.5835C36.5086 46.5835 36.0099 46.4838 35.6109 46.2843C34.7131 45.8853 33.9151 45.187 33.5161 44.2893C32.7181 42.394 33.6158 40.1995 35.5111 39.3017C37.4064 38.5037 39.6009 39.4015 40.4986 41.2967C40.8976 42.1945 40.8976 43.2918 40.4986 44.1895C40.0996 45.0873 39.4014 45.8853 38.5036 46.2843C38.0049 46.4838 37.5061 46.5835 37.0074 46.5835ZM37.0074 40.5985C36.7081 40.5985 36.4089 40.6982 36.1096 40.798C34.9126 41.2967 34.4138 42.5935 34.9126 43.7905C35.1121 44.389 35.6109 44.788 36.1096 44.9875C36.7081 45.187 37.3066 45.187 37.8054 44.9875C38.4039 44.788 38.8029 44.2893 39.0024 43.7905C39.2019 43.192 39.2019 42.5935 39.0024 42.0947C38.7031 41.0972 37.9051 40.5985 37.0074 40.5985Z" fill="#FFBC57"/>
<path d="M54.0648 47.382C54.763 48.8783 53.965 50.6738 52.4688 51.3721C50.9725 52.0703 49.177 51.2723 48.4788 49.776C47.7805 48.2798 48.5785 46.4843 50.0748 45.786C51.6708 45.1875 53.4663 45.8858 54.0648 47.382Z" fill="white"/>
<path d="M51.2718 52.3692C49.7755 52.3692 48.379 51.4714 47.7805 50.0749C46.9825 48.1796 47.8802 45.9851 49.7755 45.0874C51.6708 44.2894 53.8653 45.1871 54.763 47.0824C55.561 48.9777 54.6633 51.1722 52.768 52.0699C52.2693 52.2694 51.7705 52.3692 51.2718 52.3692ZM51.2718 46.2844C50.9725 46.2844 50.6733 46.3841 50.374 46.4839C49.177 46.9826 48.6782 48.2794 49.177 49.4764C49.6758 50.6734 50.9725 51.1722 52.1695 50.6734C53.3665 50.1747 53.8653 48.8779 53.3665 47.6809C53.0673 46.8829 52.1695 46.2844 51.2718 46.2844Z" fill="#FFBC57"/>
<path d="M22.3442 53.9653C21.9452 53.9653 21.6459 53.6661 21.6459 53.2671L19.8504 38.6037C19.7507 38.2047 20.0499 37.8057 20.5487 37.8057C20.9477 37.706 21.3467 38.0052 21.3467 38.504L23.1422 53.1673C23.1422 53.5663 22.8429 53.8656 22.3442 53.9653C22.4439 53.9653 22.3442 53.9653 22.3442 53.9653Z" fill="#2B2929"/>
<path d="M23.4415 62.4438C23.0425 62.4438 22.7432 62.1446 22.7432 61.7456L22.2445 57.7555C22.1447 57.3565 22.444 56.9575 22.9427 56.9575C23.3417 56.9575 23.7407 57.157 23.7407 57.6558L24.2395 61.6458C24.1397 61.9451 23.9402 62.3441 23.4415 62.4438Z" fill="#2B2929"/>
</svg>
