<svg width="89" height="30" fill="none" xmlns="http://www.w3.org/2000/svg"><g clip-path="url(#clip0_77_250)" fill="#B1B1B1"><path d="M32.412 24.42c0 .327 0 .654-.106.98-.214.437-.533.873-.96.982a3.436 3.436 0 01-1.49 0l-.64-.327c-.213-.218-.32-.436-.426-.654-.107-.327-.107-.654-.107-.981v-4.36H26.98v4.469c0 .545.106 1.09.32 1.635.212.436.425.763.745 1.09.32.327.746.545 1.172.654a5.505 5.505 0 002.663 0 2.522 2.522 0 001.172-.654c.32-.327.64-.654.746-1.09.213-.545.32-1.09.32-1.635v-4.47h-1.705v4.36zm7.777-4.579c-.426 0-.852.11-1.279.218-.426.218-.745.436-.958.872v-.872h-1.705v7.74h1.705v-4.251c0-.327 0-.546.106-.873l.32-.654c.213-.218.32-.327.532-.436.214-.109.533-.109.746-.109.213 0 .426 0 .64.11.213 0 .426.108.639.217l.426-1.635c-.213-.109-.426-.109-.64-.218-.106-.109-.319-.109-.532-.109zm3.516 3.38c0-.219.106-.546.213-.764.106-.218.213-.436.426-.654.213-.218.426-.327.639-.436.213-.109.533-.109.746-.109.532 0 .959.11 1.278.545.32.436.533.872.64 1.418h-3.942zm4.687-2.29a4.733 4.733 0 00-1.172-.872c-.426-.218-.959-.327-1.491-.327-.533 0-1.066.11-1.492.327-.426.218-.852.436-1.172.872-.32.327-.639.763-.745 1.308a4.465 4.465 0 00-.32 1.636c0 .545.107 1.09.32 1.635a3.23 3.23 0 002.024 2.071 4.19 4.19 0 001.598.327c.532 0 1.172-.109 1.704-.218.533-.218 1.066-.436 1.492-.872l-.852-1.2c-.32.219-.64.437-1.066.655-.32.109-.746.218-1.172.218-.213 0-.532 0-.745-.11l-.64-.326c-.213-.218-.426-.436-.532-.654-.107-.327-.213-.545-.32-.872h5.753v-.654c0-.546-.107-1.09-.32-1.636-.213-.436-.532-.872-.852-1.308zm-40.696 1.2a3.9 3.9 0 00-1.172-.546l-1.278-.327-.746-.109c-.32 0-.64-.109-.959-.218-.213-.109-.532-.109-.746-.327a.841.841 0 01-.426-.436c-.106-.218-.213-.436-.213-.654 0-.218.107-.545.213-.654a1.3 1.3 0 01.533-.545c.213-.109.533-.327.746-.327.32-.109.639-.109 1.065-.109.533 0 1.065.109 1.598.218.533.218 1.065.436 1.492.763l.852-1.417a9.355 9.355 0 00-1.811-.872 7.94 7.94 0 00-2.237-.327c-.533 0-1.172.109-1.705.218-.533.109-.959.327-1.385.654-.426.327-.746.654-.959 1.09-.213.436-.32.981-.32 1.526 0 .436.107.981.32 1.308.107.436.32.763.64.981.32.218.639.436 1.065.546.426.218.852.326 1.278.326l.852.11c.64.108 1.279.218 1.918.545.426.218.64.545.64.98 0 .219-.107.546-.214.764a1.3 1.3 0 01-.532.545c-.214.109-.533.218-.853.327-.32.109-.639.109-1.065.109-.32 0-.64 0-.959-.11-.64-.108-1.278-.326-1.81-.653-.214-.11-.534-.327-.64-.545L-.188 26.49l.96.654c.319.218.745.327 1.065.436l1.278.327c.426.109.746.109 1.172.109.533 0 1.172-.109 1.704-.218.533-.11.96-.327 1.385-.654.426-.327.746-.654.96-1.09.212-.436.319-.981.319-1.526 0-.436-.107-.872-.32-1.308-.106-.546-.32-.764-.639-1.09zm4.048 1.09c0-.219.107-.546.213-.764.107-.218.213-.436.427-.654.213-.218.426-.327.639-.436.213-.109.533-.109.745-.109.533 0 .96.218 1.279.545.32.436.532.872.64 1.418h-3.943zm4.688-2.29a4.737 4.737 0 00-1.172-.872c-.426-.218-.959-.327-1.492-.327-.532 0-1.065.11-1.491.327-.426.218-.852.436-1.172.872-.32.327-.64.763-.746 1.308a4.46 4.46 0 00-.32 1.636c0 .545.107 1.09.32 1.635a3.229 3.229 0 002.025 2.071 4.19 4.19 0 001.598.327c.532 0 1.171-.109 1.704-.218.533-.218 1.065-.436 1.491-.872l-.852-1.2c-.32.219-.639.437-1.065.655-.32.109-.746.218-1.172.218-.213 0-.532 0-.746-.11l-.639-.326c-.213-.218-.426-.436-.532-.654-.107-.327-.214-.545-.32-.872h5.646v-.654c0-.546-.106-1.09-.32-1.636-.212-.436-.426-.872-.745-1.308zm7.244 5.233c-.64.327-1.278.327-1.917.109-.32-.11-.533-.327-.746-.545-.213-.218-.32-.545-.426-.763a3.435 3.435 0 010-2.072c.106-.326.32-.545.426-.763.213-.218.426-.436.746-.545.32-.109.532-.218.852-.218.32 0 .639.11.959.218.32.11.639.327.852.654l1.065-1.199c-.32-.436-.746-.763-1.172-.872a4.189 4.189 0 00-1.598-.327c-.532 0-1.171.11-1.704.327-.96.436-1.705 1.2-2.024 2.18a4.343 4.343 0 000 3.27c.32.982 1.171 1.745 2.13 2.181a4.328 4.328 0 001.705.327 4.19 4.19 0 001.598-.327 2.916 2.916 0 001.278-.981l-1.065-1.2c-.426.219-.64.437-.959.546zm54.226-1.308c-.106.327-.32.545-.426.763-.213.218-.426.436-.746.545a2.893 2.893 0 01-1.918 0c-.532-.218-.958-.763-1.171-1.308a3.091 3.091 0 010-1.963c.213-.545.639-1.09 1.171-1.308.32-.109.64-.218.96-.218.319 0 .638.11.958.218.32.11.533.327.746.545.213.218.32.545.426.764.213.654.213 1.417 0 1.962zm.107-3.925a2.653 2.653 0 00-2.45-1.09c-1.599 0-2.984.981-3.516 2.398a4.341 4.341 0 000 3.27c.213.437.426.982.852 1.309.746.763 1.704 1.199 2.663 1.199.533 0 .959-.109 1.385-.327.426-.218.746-.436.959-.872v.981h1.811V16.135H78.01v4.796zm5.113 2.29c0-.219.107-.546.213-.764.107-.218.213-.436.426-.654.213-.218.427-.327.64-.436.213-.109.532-.109.745-.109.533 0 .96.11 1.279.436.32.436.532.873.639 1.418h-3.942v.109zm4.688-2.29a4.737 4.737 0 00-1.172-.872c-.426-.218-.96-.327-1.492-.327s-.959.11-1.491.327c-.426.218-.853.436-1.172.872-.32.327-.64.763-.746 1.308a4.463 4.463 0 00-.32 1.636c0 .545.107 1.09.32 1.635.213.436.426.872.853 1.308.32.327.745.654 1.171.872a4.19 4.19 0 001.598.327c.533 0 1.172-.109 1.705-.218.533-.218 1.065-.436 1.492-.872l-.853-1.2c-.32.219-.64.437-1.065.655-.32.109-.746.218-1.172.218-.213 0-.533 0-.746-.11l-.64-.326c-.212-.218-.425-.436-.532-.654-.106-.327-.213-.545-.32-.872h5.647v-.655c0-.544-.107-1.09-.32-1.635-.106-.654-.426-1.09-.745-1.417zm-19.176 3.925c-.213.545-.746 1.09-1.279 1.308a2.893 2.893 0 01-1.918 0c-.532-.218-1.065-.654-1.278-1.308a3.437 3.437 0 010-2.072c.107-.327.32-.544.533-.763.213-.218.426-.436.746-.545.319-.109.639-.218.958-.218.32 0 .64.11.96.218.319.11.532.327.745.545.213.218.426.546.533.764.32.763.32 1.417 0 2.07zm.745-3.925c-.426-.327-.852-.654-1.278-.872a4.193 4.193 0 00-1.598-.327 4.73 4.73 0 00-1.705.327c-.532.218-.959.436-1.278.872-.32.327-.64.763-.852 1.308a4.341 4.341 0 000 3.27c.213.437.532.873.852 1.309.426.327.852.654 1.278.872a4.332 4.332 0 003.303 0c.533-.218.959-.436 1.278-.872.32-.327.64-.763.853-1.308a4.343 4.343 0 000-3.27c-.214-.437-.427-.873-.853-1.309zm-15.66-1.853c.32-.327.745-.654 1.278-.872a4.189 4.189 0 011.598-.327c.64 0 1.279.109 1.811.436.533.327.959.654 1.279 1.2l1.491-.982c-.213-.327-.533-.654-.852-.981a3.825 3.825 0 00-1.065-.763c-.427-.218-.853-.327-1.279-.436-.426-.11-.959-.11-1.491-.11-.853 0-1.598.11-2.344.437-1.385.545-2.557 1.635-3.09 3.161a7.073 7.073 0 000 4.688c.533 1.417 1.705 2.507 3.09 3.16a7.288 7.288 0 003.729.328c.426-.109.852-.218 1.278-.436a3.83 3.83 0 001.065-.763c.32-.327.64-.654.852-.981l-1.49-1.09a3.718 3.718 0 01-3.09 1.635 4.189 4.189 0 01-1.598-.327c-.426-.218-.853-.436-1.279-.872-.32-.327-.639-.872-.852-1.308a4.625 4.625 0 010-3.38c.32-.545.64-.98.959-1.417z"/><path fill-rule="evenodd" clip-rule="evenodd" d="M47.22 4.687a4.739 4.739 0 00-1.172-.872c-.427-.218-.96-.327-1.492-.327a4.19 4.19 0 00-1.598.327 3.826 3.826 0 00-1.278.872c-.32.436-.64.872-.852 1.309a4.613 4.613 0 00-.32 1.744c0 .545.106 1.199.32 1.744.213.545.426.981.852 1.308.32.327.852.654 1.278.872a4.327 4.327 0 001.705.327c.532 0 1.172-.109 1.704-.218.533-.218 1.066-.436 1.492-.872l-.852-1.2c-.16.11-.347.219-.533.328-.186.109-.373.218-.533.327-.426.11-.852.218-1.172.218-.32 0-.532 0-.852-.109l-.195-.146c-.382-.282-.795-.589-.977-1.053-.213-.218-.32-.545-.32-.872h5.86V7.74c0-.545-.107-1.2-.32-1.744-.106-.437-.32-.982-.745-1.309zm-4.794 2.399c0-.327.106-.545.213-.763.106-.218.213-.437.426-.655.213-.217.426-.327.639-.436.213-.109.533-.109.852-.109.533 0 .959.218 1.385.545.32.437.64.873.64 1.418h-4.155z"/><path d="M38.27 10.138c-.212.11-.532.11-.852.11-.212 0-.32 0-.532-.11a.531.531 0 00-.213-.109.53.53 0 01-.213-.109c-.054-.054-.107-.136-.16-.218a1.512 1.512 0 00-.16-.218c-.106-.218-.106-.436-.106-.654V5.342h3.196V3.706h-3.09V1.308h-1.705v2.398h-1.598v1.636h1.598V8.83c-.106.872.214 1.744.746 2.398.533.545 1.279.763 2.13.763.427 0 .96-.109 1.386-.218.426-.109.746-.327 1.065-.545l-.745-1.417c-.214.109-.427.218-.746.327zm20.242-4.252c.213-.218.426-.435.746-.545.32-.109.64-.218.959-.218.32 0 .745.11 1.065.218.32.11.64.327.852.655l1.066-1.2a2.914 2.914 0 00-1.279-.98 4.328 4.328 0 00-1.704-.328c-.533 0-1.172.11-1.705.327-.959.436-1.81 1.2-2.13 2.18a4.627 4.627 0 000 3.38c.426.981 1.172 1.853 2.13 2.18a4.729 4.729 0 001.705.327 4.73 4.73 0 001.704-.327 2.915 2.915 0 001.279-.98l-1.066-1.2c-.213.218-.532.436-.852.654-.32.109-.746.218-1.065.218-.32 0-.64-.109-.959-.218-.32-.11-.533-.327-.746-.545a3.321 3.321 0 01-.532-.763 3.438 3.438 0 010-2.071c.057-.088.106-.168.152-.242a2.79 2.79 0 01.38-.522zM10.359 0l-3.41 8.394L3.648 0H.771v11.773h1.917V2.18l3.41 8.394h2.024l3.409-8.503v9.702h1.917V0h-3.09z"/><path fill-rule="evenodd" clip-rule="evenodd" d="M21.332 4.687c-.32-.327-.64-.654-1.065-.872-.427-.218-.96-.327-1.492-.327-1.598 0-3.09.981-3.622 2.508a4.627 4.627 0 000 3.379c.213.545.426.981.852 1.308.746.763 1.811 1.2 2.77 1.2.533 0 .959-.11 1.492-.328.426-.218.745-.545 1.065-.872v.981h1.704V3.706h-1.704v.981zm0 4.034c-.213.654-.746 1.09-1.279 1.417a3.214 3.214 0 01-2.024 0c-.32-.109-.532-.327-.745-.545-.213-.218-.32-.545-.427-.872a3.093 3.093 0 010-1.962c.213-.654.64-1.09 1.172-1.418.32-.109.64-.218.96-.218.958 0 1.917.545 2.236 1.527.32.763.32 1.417.107 2.07z"/><path d="M31.24 7.74c-.64-.436-1.279-.654-2.025-.763-.073-.01-.172-.017-.288-.027-.683-.055-1.949-.159-1.949-.845 0-1.511 3.21-.858 3.942-.109l.852-1.635c-1.81-1.39-6.605-1.424-6.605 1.744 0 .654.213 1.2.64 1.526.532.436 1.278.763 2.024.763l.852.11c.32 0 .745.108 1.065.326.213.11.32.327.32.545 0 .327-.213.545-.426.764-1.05.537-3.078.23-3.942-.655l-.746 1.418c.095.065.181.13.263.192.193.146.365.276.59.353.532.218 1.171.436 1.81.436h.746c.533 0 1.066-.11 1.492-.218.316-.081.573-.222.859-.378.1-.055.202-.111.312-.167.32-.218.533-.436.746-.764.213-.327.213-.654.213-1.09 0-.545-.32-1.199-.745-1.526zm20.774-3.162v-.872h-1.705v8.067h1.705v-4.47c0-.326 0-.654.106-.871.615-1.258 1.923-1.47 3.09-.873l.426-1.744c-1.1-.563-3.013-.484-3.622.763z"/><path fill-rule="evenodd" clip-rule="evenodd" d="M70.657 4.687c-.32-.327-.639-.654-1.065-.872-.426-.218-.959-.327-1.492-.327-1.598 0-3.09.981-3.622 2.508a4.627 4.627 0 000 3.379c.213.545.533.981.853 1.308.745.763 1.81 1.2 2.77 1.2.532 0 .958-.11 1.49-.328.427-.218.747-.545 1.066-.872v.981h1.705V3.706h-1.705v.981zm0 4.034c-.213.654-.639 1.09-1.278 1.308a3.213 3.213 0 01-2.025 0c-.319-.11-.532-.327-.745-.545-.213-.218-.32-.545-.426-.872a3.09 3.09 0 010-1.962c.213-.654.639-1.09 1.171-1.418.32-.109.64-.218.96-.218.958 0 1.917.545 2.237 1.527.32.872.32 1.526.106 2.18z"/><path d="M78.434 3.46c-.427 0-.96.11-1.385.219-.426.218-.746.436-.96.872V3.68h-1.704v8.067h1.705v-4.47c0-.327 0-.654.106-.872.107-.218.213-.436.427-.654.213-.218.426-.327.639-.436.213-.109.532-.109.745-.109.214 0 .427 0 .64.11.213 0 .426.108.639.217l.426-1.744c-.106-.055-.213-.082-.32-.109a1.514 1.514 0 01-.32-.109c-.212-.11-.425-.11-.638-.11z"/><path fill-rule="evenodd" clip-rule="evenodd" d="M84.613 3.706a2.653 2.653 0 012.45 1.09V0h1.704v11.664h-1.81v-.98c-.214.435-.533.653-.96.871a2.895 2.895 0 01-1.384.327c-.96 0-1.918-.436-2.664-1.199-.366-.281-.575-.723-.762-1.12l-.09-.188a4.343 4.343 0 010-3.27c.533-1.418 1.918-2.399 3.516-2.399zm2.07 5.529a2.05 2.05 0 00.273-.514c.213-.545.213-1.308 0-1.962a4.75 4.75 0 01-.077-.17c-.085-.197-.186-.427-.349-.593-.213-.218-.426-.436-.746-.545-.319-.11-.639-.218-.958-.218-.32 0-.64.109-.96.218-.532.218-.958.763-1.171 1.308a3.093 3.093 0 000 1.962c.213.545.64 1.09 1.172 1.308.64.218 1.278.218 1.917 0 .32-.109.533-.327.746-.545a2.2 2.2 0 01.153-.25z"/></g><defs><clipPath id="clip0_77_250"><path fill="#fff" d="M0 0h89v30H0z"/></clipPath></defs></svg>