<svg width="70" height="30" fill="none" xmlns="http://www.w3.org/2000/svg"><g clip-path="url(#clip0_77_246)" fill="#B1B1B1"><path d="M27.917 15.015l-3.52 8.819-.343-1.828c-.86-2.224-2.748-4.528-4.98-5.402l3.262 11.361h3.778l5.666-12.95h-3.863zm3.005 12.95l2.232-12.95h3.605l-2.232 12.95h-3.605zm21.462-4.608c.258-.715 1.46-3.655 1.46-3.655s.258-.715.515-1.27l.258 1.111.858 3.735h-3.09v.079zm4.379-8.342h-2.747c-.859 0-1.546.238-1.89 1.112l-5.322 11.838h3.778s.6-1.589.772-1.986h4.636c.086.476.43 1.907.43 1.907h3.348c-.086.079-3.005-12.871-3.005-12.871zm-9.186.318a9.81 9.81 0 00-3.263-.557c-3.52 0-6.095 1.748-6.095 4.29 0 1.828 1.803 2.94 3.176 3.497 1.374.635 1.89 1.032 1.89 1.588 0 .874-1.117 1.272-2.147 1.272-1.46 0-2.232-.16-3.348-.715l-.515-.16-.516 2.86c.859.398 2.404.636 4.035.716 3.778 0 6.268-1.748 6.268-4.45 0-1.509-.945-2.621-3.005-3.495-1.288-.636-2.06-1.033-1.975-1.589 0-.556.687-1.112 2.06-1.112.945 0 1.89.159 2.662.476l.344.16c-.086 0 .429-2.781.429-2.781z"/><path d="M21.134 15.015h-5.838v.238c4.55 1.112 7.469 3.734 8.757 6.833l-1.288-5.96c-.258-.873-.859-1.111-1.631-1.111zM4.48 11.917H2.16L-.5.794 2.076.397l1.802 8.66L8.514.477h2.404L4.48 11.917zm61.813.239c-.859 1.51-1.632 1.906-2.834 1.906-.257 0-.429 0-.6-.079v-1.192c.171.08.429.08.772.08.43 0 .859-.239 1.116-.636l.172-.397-1.374-5.88 1.717-.238.773 4.29 2.146-4.13h1.632l-3.52 6.276zM59.939 7.07c-.515 0-1.03.318-1.545.794l-.515 2.702c.343.08.515.159 1.03.159 1.03 0 1.717-.557 1.975-1.907.172-1.192-.258-1.748-.944-1.748zm-1.201 4.846c-.859 0-1.717-.159-2.576-.397L57.536 3.1l1.63-.239-.6 3.655c.515-.397 1.116-.795 1.974-.795 1.374 0 2.318.954 1.975 2.94-.43 2.224-1.889 3.257-3.777 3.257zM51.097 5.72c-.515-.238-.859-.317-1.631-.317-1.117 0-2.06.873-2.318 2.542-.258 1.51.343 2.224 1.287 2.224.773 0 1.46-.397 2.147-1.112l.515-3.337zm-.687 6.118v-1.112c-.687.635-1.631 1.27-2.833 1.27-1.803 0-3.005-1.19-2.576-3.892.515-2.94 2.49-4.29 4.465-4.29.772 0 1.46.159 1.888.317l.601-3.813L54.188 0l-1.975 11.838H50.41zm-9.444-6.753c-.858 0-1.63.635-1.974 1.907h3.348c0-1.192-.43-1.907-1.374-1.907zm3.177 3.178h-5.495c-.171 1.51.601 2.224 1.889 2.224 1.116 0 2.06-.397 3.09-.953v1.51c-1.03.556-2.231.953-3.605.953-2.404 0-3.95-1.271-3.52-4.132.43-2.542 2.318-4.13 4.55-4.13 2.576 0 3.434 1.826 3.005 4.05.172.16.086.398.086.478zm-9.015-5.641c-.686 0-1.201-.477-1.116-1.112.086-.636.773-1.113 1.46-1.113.687 0 1.202.477 1.03 1.113-.086.635-.687 1.112-1.374 1.112zm-2.661 9.216l1.288-7.945H35.9l-1.288 7.945h-2.146zm0-10.09c-.687 0-1.202.318-1.288 1.033l-.171 1.192h1.63V5.56H30.75l-1.03 6.277h-2.06l1.03-6.277h-1.202l.257-1.588h1.202l.258-1.351C29.462.874 30.835.238 32.553.238c.343 0 .687 0 .858.08v1.589c-.343-.16-.6-.16-.944-.16zm-6.696.874c-.687 0-1.202-.477-1.117-1.112.086-.636.773-1.113 1.46-1.113.687 0 1.202.477 1.03 1.113 0 .635-.687 1.112-1.373 1.112zm-2.576 9.216l1.288-7.945h2.146l-1.288 7.945h-2.146zm-3.262-4.529l-.773 4.529h-2.146l1.288-7.945h1.802v1.589c.687-.953 1.717-1.668 3.005-1.748V5.72c-1.202.08-2.404.715-3.176 1.59zM13.15 5.085c-.858 0-1.63.635-1.974 1.907h3.348c.086-1.192-.343-1.907-1.373-1.907zm3.263 3.178h-5.495c-.171 1.51.601 2.224 1.889 2.224 1.116 0 2.06-.397 3.09-.953v1.51c-1.03.556-2.146.953-3.605.953-2.404 0-3.95-1.271-3.52-4.132.43-2.542 2.318-4.13 4.55-4.13 2.576 0 3.434 1.826 3.005 4.05.086.16.086.398.086.478z"/></g><defs><clipPath id="clip0_77_246"><path fill="#fff" d="M0 0h70v30H0z"/></clipPath></defs></svg>