<svg width="125" height="150" fill="none" xmlns="http://www.w3.org/2000/svg"><g clip-path="url(#clip0_218_16474)"><path d="M124.703 57.3a63.902 63.902 0 00-11.02-30.287c-6.191-8.963-14.566-16.146-24.31-20.852A61.76 61.76 0 0058.087.158a61.935 61.935 0 00-30.143 10.404A63.444 63.444 0 008.95 30.79 64.414 64.414 0 00.297 57.3 63.874 63.874 0 003.68 84.824a63.18 63.18 0 0014.704 23.389l38.97 39.582a7.352 7.352 0 002.392 1.632 7.274 7.274 0 008.048-1.632l38.822-39.582a63.195 63.195 0 0014.704-23.39 63.88 63.88 0 003.383-27.523z" fill="#FFBC57"/><circle cx="62.5" cy="62.5" r="48.5" fill="#fff"/><g clip-path="url(#clip1_218_16474)" fill="#FFBC57"><path d="M32.333 55.4v26.4c0 .72-.49 1.2-1.223 1.2h-4.888C25.49 83 25 82.52 25 81.8V55.4c0-.72.489-1.2 1.222-1.2h4.888c.734 0 1.223.6 1.223 1.2zm66.445-1.2h-4.889c-.733 0-1.221.48-1.221 1.2v26.4c0 .72.488 1.2 1.221 1.2h4.889c.733 0 1.222-.48 1.222-1.2V55.4c0-.6-.489-1.2-1.222-1.2zm-8.554 8.4v7.2c0 .72-.489 1.2-1.222 1.2H35.999c-.733 0-1.222-.48-1.222-1.2v-7.2c0-.72.49-1.2 1.222-1.2h53.003c.733 0 1.222.48 1.222 1.2zM35.999 59h14.409c.733 0 1.222-.48 1.222-1.2V42.2c0-.72-.489-1.2-1.222-1.2H35.999c-.733 0-1.222.48-1.222 1.2v15.6c0 .72.49 1.2 1.222 1.2zm19.297 0h14.409c.733 0 1.222-.48 1.222-1.2V42.2c0-.72-.489-1.2-1.222-1.2H55.296c-.733 0-1.222.48-1.222 1.2v15.6c0 .72.49 1.2 1.222 1.2zm33.706-18H74.593c-.733 0-1.222.48-1.222 1.2v15.6c0 .72.489 1.2 1.222 1.2h14.409c.733 0 1.222-.48 1.222-1.2V42.2c0-.72-.489-1.2-1.222-1.2zm0 32.4H35.999c-.733 0-1.222.48-1.222 1.2v7.2c0 .72.49 1.2 1.222 1.2h7.076c.734 0 1.222-.48 1.222-1.2v-1.2h36.407v1.2c0 .72.489 1.2 1.222 1.2h7.076c.733 0 1.222-.48 1.222-1.2v-7.2c0-.72-.489-1.2-1.222-1.2z"/></g></g><defs><clipPath id="clip0_218_16474"><path fill="#fff" d="M0 0h125v150H0z"/></clipPath><clipPath id="clip1_218_16474"><path fill="#fff" transform="translate(25 41)" d="M0 0h75v42H0z"/></clipPath></defs></svg>