<svg width="28" height="28" fill="none" xmlns="http://www.w3.org/2000/svg"><path d="M26.202 1.813a3.853 3.853 0 00-4-.946L3.336 7.173a3.867 3.867 0 00-.16 7.294l6.986 2.666a1.24 1.24 0 01.707.694l2.667 7a3.826 3.826 0 003.613 2.506h.093a3.84 3.84 0 003.587-2.666l6.307-18.894a3.853 3.853 0 00-.934-3.96zm-1.533 3.12L18.296 23.84a1.174 1.174 0 01-1.12.827 1.227 1.227 0 01-1.16-.774l-2.667-7a3.88 3.88 0 00-2.227-2.24l-7-2.666a1.2 1.2 0 01-.786-1.16 1.173 1.173 0 01.826-1.12L23.07 3.4a1.213 1.213 0 011.6 1.533z" fill="#FFBC57"/></svg>