<svg width="40" height="40" fill="none" xmlns="http://www.w3.org/2000/svg"><path d="M39.024 23.098h-.975V6.122a.978.978 0 00-.976-.976c-.585 0-.975.39-.975.976v.488C25.56 4.463 14.146 4.463 3.61 6.61v-.488a.978.978 0 00-.976-.976.978.978 0 00-.975.976V23H.976a.978.978 0 00-.976.976v4c0 .487.39.975.976.975H3.61l-.78 4.586c0 .292 0 .487.194.682.098.196.39.293.586.39h.195c.488 0 .878-.292.878-.78l.78-4.878h29.171l.78 4.878c.098.488.488.78.879.78h.195c.488-.097.878-.585.78-1.072l-.78-4.586h2.536c.488 0 .976-.39.976-.975v-4c0-.488-.39-.878-.976-.878zm-5.17-5.269v-1.073c0-1.756-1.464-3.22-3.22-3.22H23.22C21.463 13.537 20 15 20 16.757v.976h-.098v-.976c0-1.756-1.463-3.22-3.22-3.22H9.367c-1.756 0-3.22 1.464-3.22 3.22v1.073c-1.366.39-2.341 1.659-2.341 3.025V23 8.561c10.439-2.244 22.049-2.244 32.488 0V23v-2.146c-.098-1.464-1.074-2.732-2.44-3.025zM8 17.634v-.976c0-.682.585-1.365 1.366-1.365h7.415c.682 0 1.365.585 1.365 1.366v.975H8zm13.951 0v-.976c0-.682.586-1.365 1.366-1.365h7.415c.683 0 1.366.585 1.366 1.366v.975H21.95zM5.66 20.854c0-.683.585-1.366 1.365-1.366h26.147c.683 0 1.366.585 1.366 1.366V23H5.659v-2.146zm32.487 4.097v2.147H1.854V24.95h36.292z" fill="#2B2929"/></svg>