<svg width="40" height="40" fill="none" xmlns="http://www.w3.org/2000/svg"><path d="M37.482 11.683h-1.453v-3.1A3.575 3.575 0 0032.445 5h-9.878c-1.066 0-2.034.484-2.712 1.162C19.177 5.484 18.208 5 17.143 5H7.36C5.327 5 3.68 6.646 3.68 8.584v3.099H2.227C.968 11.683 0 12.748 0 14.007v9.201c0 2.809 2.034 5.23 4.746 5.715l-.872 4.648c0 .291 0 .485.194.678.194.194.387.388.58.388h.195c.484 0 .871-.29.968-.775l.872-4.94H33.22l.872 4.94c.097.484.484.775.968.775h.194c.29 0 .485-.194.581-.388.097-.193.194-.484.194-.678l-.775-4.745C37.966 28.245 40 25.92 40 23.11v-9.104c-.29-1.259-1.26-2.324-2.518-2.324zM1.84 14.007c0-.193.194-.387.388-.387h2.615c.193 0 .387.194.387.387v7.555c0 1.259 1.065 2.324 2.324 2.324h11.042c.484 0 .968-.194 1.356-.484.387.29.871.484 1.355.484H32.35c1.259 0 2.324-1.065 2.324-2.324v-7.555c0-.193.194-.387.387-.387h2.519c.193 0 .387.194.387.387v9.201c0 2.228-1.743 3.971-3.97 3.971H5.907c-2.228 0-3.971-1.743-3.971-3.97v-9.202H1.84zM7.36 6.84h9.88c.968 0 1.743.775 1.743 1.744v8.232H7.07v-2.809c0-.968-.58-1.84-1.453-2.13V8.584c0-.969.775-1.744 1.744-1.744zm15.207 0h9.879c.968 0 1.743.775 1.743 1.744v3.293c-.872.29-1.453 1.162-1.453 2.13v2.809H20.823V8.584c0-.969.775-1.744 1.744-1.744zm-1.744 12.204c0-.194.194-.388.388-.388h11.04c.195 0 .388.194.388.388v2.518a.417.417 0 01-.387.387H21.21a.417.417 0 01-.388-.387v-2.518zm-2.324-.388c.194 0 .387.194.387.388v2.518a.417.417 0 01-.387.387H7.458a.417.417 0 01-.388-.387v-2.518c0-.194.194-.388.388-.388h11.04z" fill="#2B2929"/><path d="M10.847 12.458h2.81a.97.97 0 00.968-.969.97.97 0 00-.969-.968h-2.809a.97.97 0 00-.968.968c0 .581.387.969.968.969zm15.206 0h2.81a.97.97 0 00.968-.969.97.97 0 00-.969-.968h-2.808a.97.97 0 00-.969.968.97.97 0 00.968.969z" fill="#2B2929"/></svg>