<svg width="40" height="40" fill="none" xmlns="http://www.w3.org/2000/svg"><path d="M39.024 13.707H22.83c.39-.292.683-.683.976-1.073.585-.976.78-2.146.585-3.317.976-1.268 1.561-2.83 1.561-4.488 0-1.56-1.17-2.829-2.536-2.829-.293 0-.683.098-.976.195-.195-.097-.39-.195-.585-.195H17.56c-.39 0-.683.195-.878.488a.886.886 0 000 .975l.195.39c.195.196.195.488.195.781a5.09 5.09 0 01-.878 2.83c-.976 1.56-1.073 3.512-.097 5.073.292.39.585.78.975 1.073H.976a.978.978 0 00-.976.975c0 .586.488.976.976.976h3.317v21.073c0 .585.487.976.975.976s.976-.488.976-.976V20.732h27.414v16c0 .585.488.975.976.975s.976-.488.976-.975V15.659h3.414a.978.978 0 00.976-.976.978.978 0 00-.976-.976zM23.902 4.732c0 .78-.195 1.56-.585 2.341-.39-.683-.585-1.56-.585-2.341.097-.39.39-.78.683-.78.292 0 .487.39.487.78zm-4.78-.78h1.756v.877c0 1.366.39 2.634 1.17 3.708.586.975.586 2.146.098 3.024l-.292.293h-3.61l-.293-.293c-.585-.976-.488-2.146.098-3.024a7.035 7.035 0 001.17-3.903c-.097-.195-.097-.488-.097-.683zm14.634 11.707v3.121H6.244v-3.122h27.512z" fill="#2B2929"/></svg>