<svg width="53" height="48" fill="none" xmlns="http://www.w3.org/2000/svg"><path fill-rule="evenodd" clip-rule="evenodd" d="M4.125 2.5C3.19 2.5 2.5 3.19 2.5 4.125v21.75c0 1.091.712 1.625 1.25 1.625h2.5a1.25 1.25 0 010 2.5h-2.5C1.538 30 0 28.034 0 25.875V4.125C0 1.81 1.81 0 4.125 0h35.5c2.315 0 4.125 1.81 4.125 4.125V15a1.25 1.25 0 11-2.5 0V4.125c0-.935-.69-1.625-1.625-1.625h-35.5z" fill="#fff"/><path fill-rule="evenodd" clip-rule="evenodd" d="M0 7.5c0-.69.56-1.25 1.25-1.25H42.5c.69 0 1.25.56 1.25 1.25v5c0 .69-.56 1.25-1.25 1.25H1.25C.56 13.75 0 13.19 0 12.5v-5zm2.5 1.25v2.5h38.75v-2.5H2.5zM12.875 20c-.935 0-1.625.69-1.625 1.625v21.75c0 .935.69 1.625 1.625 1.625H48.25c.97 0 1.75-.85 1.75-1.625v-21.75C50 20.69 49.31 20 48.375 20h-35.5zM8.75 21.625c0-2.315 1.81-4.125 4.125-4.125h35.5c2.315 0 4.125 1.81 4.125 4.125v21.75c0 2.224-1.969 4.125-4.25 4.125H12.875c-2.315 0-4.125-1.81-4.125-4.125v-21.75z" fill="#fff"/><path fill-rule="evenodd" clip-rule="evenodd" d="M15 40c0-.69.56-1.25 1.25-1.25h6.25a1.25 1.25 0 110 2.5h-6.25c-.69 0-1.25-.56-1.25-1.25zm11.25 0c0-.69.56-1.25 1.25-1.25h6.25a1.25 1.25 0 110 2.5H27.5c-.69 0-1.25-.56-1.25-1.25zm11.25 0c0-.69.56-1.25 1.25-1.25H45a1.25 1.25 0 110 2.5h-6.25c-.69 0-1.25-.56-1.25-1.25zm4.375-12.5a1.875 1.875 0 100 3.75 1.875 1.875 0 000-3.75zM37.5 29.375a4.375 4.375 0 118.75 0 4.375 4.375 0 01-8.75 0z" fill="#fff"/></svg>