<svg width="45" height="53" fill="none" xmlns="http://www.w3.org/2000/svg"><path fill-rule="evenodd" clip-rule="evenodd" d="M33.497.184c.371.227.598.63.598 1.066v22.38a1.25 1.25 0 11-2.5 0V3.295l-3.578 1.832a1.25 1.25 0 01-1.15-.006l-4.685-2.46-4.685 2.46a1.25 1.25 0 01-1.162 0l-4.685-2.46-4.685 2.46a1.25 1.25 0 01-1.173-.006L2.5 3.343v40.552l3.413-1.877a1.25 1.25 0 011.205 0l4.664 2.565 4.663-2.565a1.25 1.25 0 111.205 2.19l-5.266 2.897a1.25 1.25 0 01-1.205 0L6.516 44.54l-4.664 2.565A1.25 1.25 0 010 46.01V1.25A1.25 1.25 0 011.843.15l4.549 2.449L11.069.143a1.25 1.25 0 011.162 0l4.685 2.46L21.6.143a1.25 1.25 0 011.162 0l4.692 2.463 4.82-2.469a1.25 1.25 0 011.222.047z" fill="#fff"/><path fill-rule="evenodd" clip-rule="evenodd" d="M11.848 13.098c0-.69.56-1.25 1.25-1.25h13.164a1.25 1.25 0 110 2.5H13.098c-.69 0-1.25-.56-1.25-1.25zM5.266 26.263c0-.69.56-1.25 1.25-1.25h15.797a1.25 1.25 0 010 2.5H6.516c-.69 0-1.25-.56-1.25-1.25zm0 5.266c0-.69.56-1.25 1.25-1.25h9.215a1.25 1.25 0 110 2.5H6.516c-.69 0-1.25-.56-1.25-1.25zm6.582-13.165c0-.69.56-1.25 1.25-1.25h9.215a1.25 1.25 0 110 2.5h-9.215c-.69 0-1.25-.56-1.25-1.25zm-6.582-5.266c0-.69.56-1.25 1.25-1.25h2.633a1.25 1.25 0 110 2.5H6.516c-.69 0-1.25-.56-1.25-1.25zm0 5.266c0-.69.56-1.25 1.25-1.25h2.633a1.25 1.25 0 110 2.5H6.516c-.69 0-1.25-.56-1.25-1.25zM31.528 28.83c-5.853 0-10.598 4.744-10.598 10.597s4.745 10.598 10.598 10.598c5.853 0 10.598-4.745 10.598-10.598 0-5.853-4.745-10.598-10.598-10.598zM18.43 39.426c0-7.234 5.864-13.098 13.098-13.098 7.234 0 13.098 5.864 13.098 13.098 0 7.234-5.864 13.098-13.098 13.098-7.234 0-13.098-5.864-13.098-13.098z" fill="#fff"/><path fill-rule="evenodd" clip-rule="evenodd" d="M30.213 35.411a1.39 1.39 0 00-1.383 1.383 1.39 1.39 0 001.383 1.383h2.633a3.89 3.89 0 013.883 3.883 3.89 3.89 0 01-3.883 3.883H27.58a1.25 1.25 0 110-2.5h5.266a1.39 1.39 0 001.383-1.383 1.39 1.39 0 00-1.383-1.383h-2.633a3.89 3.89 0 01-3.883-3.883 3.89 3.89 0 013.883-3.883h5.266a1.25 1.25 0 110 2.5h-5.266zm6.647 4.016c0-.69.559-1.25 1.25-1.25h2.632a1.25 1.25 0 010 2.5H38.11c-.69 0-1.25-.56-1.25-1.25zm-15.797 0c0-.69.56-1.25 1.25-1.25h2.632a1.25 1.25 0 010 2.5h-2.633c-.69 0-1.25-.56-1.25-1.25z" fill="#fff"/></svg>