<svg width="50" height="50" fill="none" xmlns="http://www.w3.org/2000/svg"><path d="M46.269 8.044H33.881V4.666A3.726 3.726 0 0030.15.946H3.72A3.724 3.724 0 000 4.666v40.668a3.723 3.723 0 003.72 3.72h26.43a3.732 3.732 0 003.73-3.72v-5.062h12.39a3.732 3.732 0 003.73-3.72V11.775c-.01-2.058-1.684-3.73-3.731-3.73zM42.6 10.538v27.24h-2.4v-27.24h2.4zM31.386 45.323a1.23 1.23 0 01-1.236 1.227H3.72a1.229 1.229 0 01-1.226-1.227V4.666c0-.675.551-1.226 1.227-1.226H30.15c.675 0 1.236.55 1.236 1.226v40.657zm2.495-34.785h3.835v27.24H33.88v-27.24zm13.614 26.003a1.23 1.23 0 01-1.236 1.227h-1.164v-27.23h1.164c.675 0 1.236.551 1.236 1.227V36.54z" fill="#fff"/><path d="M9.79 23.249h14.29a3.18 3.18 0 003.18-3.18v-9.344a3.18 3.18 0 00-3.18-3.18H9.79a3.18 3.18 0 00-3.18 3.18v9.344a3.18 3.18 0 003.18 3.18zm-.686-12.524c0-.384.311-.685.686-.685h14.29c.384 0 .686.311.686.685v9.344a.685.685 0 01-.686.686H9.79a.685.685 0 01-.686-.686v-9.344zm.405 17.699H7.857a1.25 1.25 0 00-1.248 1.248 1.25 1.25 0 001.248 1.247h1.652a1.25 1.25 0 001.247-1.247 1.25 1.25 0 00-1.247-1.248zm8.251 0h-1.652a1.25 1.25 0 00-1.247 1.248 1.25 1.25 0 001.247 1.247h1.653a1.25 1.25 0 001.247-1.247 1.25 1.25 0 00-1.247-1.248zm8.265 0h-1.653a1.25 1.25 0 00-1.247 1.248 1.25 1.25 0 001.247 1.247h1.653a1.25 1.25 0 001.247-1.247 1.25 1.25 0 00-1.247-1.248zM9.509 34.057H7.857a1.25 1.25 0 00-1.248 1.247 1.25 1.25 0 001.248 1.248h1.652a1.25 1.25 0 001.247-1.248 1.25 1.25 0 00-1.247-1.247zm8.251 0h-1.652a1.25 1.25 0 00-1.247 1.247 1.25 1.25 0 001.247 1.248h1.653a1.25 1.25 0 001.247-1.248 1.25 1.25 0 00-1.247-1.247zm8.265 0h-1.653a1.25 1.25 0 00-1.247 1.247 1.25 1.25 0 001.247 1.248h1.653a1.25 1.25 0 001.247-1.248 1.25 1.25 0 00-1.247-1.247zM9.509 39.69H7.857a1.25 1.25 0 00-1.248 1.247 1.25 1.25 0 001.248 1.248h1.652a1.25 1.25 0 001.247-1.248A1.25 1.25 0 009.51 39.69zm8.251 0h-1.652a1.25 1.25 0 00-1.247 1.247 1.25 1.25 0 001.247 1.248h1.653a1.25 1.25 0 001.247-1.248 1.25 1.25 0 00-1.247-1.247zm8.265 0h-1.653a1.25 1.25 0 00-1.247 1.247 1.25 1.25 0 001.247 1.248h1.653a1.25 1.25 0 001.247-1.248 1.25 1.25 0 00-1.247-1.247z" fill="#fff"/></svg>