<svg width="79" height="74" fill="none" xmlns="http://www.w3.org/2000/svg"><path d="M37.4 73.5c7.732 0 14-6.268 14-14s-6.268-14-14-14-14 6.268-14 14 6.268 14 14 14zM12 34.5c6.627 0 12-5.373 12-12s-5.373-12-12-12-12 5.373-12 12 5.373 12 12 12zM58.6 45c11.046 0 20-8.954 20-20s-8.954-20-20-20-20 8.954-20 20 8.954 20 20 20z" fill="#FFBC57"/><path d="M69.8 31.2l-28-10-28 10 28 10 28-10z" fill="#fff"/><path d="M36.8 23l-23 8.2 23 8.3V23zM64 33.3l-22.2-7.9v15.8L64 33.3z" fill="#fff"/><path d="M41.8 42h-.3l-28-10c-.3-.1-.5-.4-.5-.7 0-.3.2-.6.5-.7l28-10c.2-.1.3-.1.5 0l28 10c.3.1.5.4.5.7 0 .3-.2.6-.5.7L42 42h-.2zM16 31.2l25.8 9.2 25.8-9.2L41.8 22 16 31.2z" fill="#2B2929"/><path d="M37.8 14.2l-28 10 4 7 28-10-4-7z" fill="#fff"/><path d="M41.8 21.2l-4-7-6.3 2.3 1.3 2.3c.6 1.1.1 2.5-1.1 2.9l-19.4 6.9 1.5 2.6 28-10z" fill="#fff"/><path d="M13.8 32c-.3 0-.5-.1-.7-.4l-4-7c-.1-.2-.1-.4 0-.6.1-.2.2-.4.5-.4l28-10c.3-.1.7 0 .9.3l4 7c.1.2.1.4.1.6-.1.2-.2.4-.5.4L14 32h-.2zm-2.9-7.3l3.2 5.7 26.6-9.5-3.2-5.7-26.6 9.5z" fill="#2B2929"/><path d="M45.8 14.2l28 10-4 7-28-10 4-7z" fill="#fff"/><path d="M69.8 32h-.3l-28-10c-.2-.1-.4-.2-.5-.4-.1-.2-.1-.4.1-.6l4-7c.2-.3.6-.5.9-.3l28 10c.2.1.4.2.5.4.1.2.1.4-.1.6l-4 7c-.1.2-.4.3-.6.3zM42.9 20.8l26.6 9.5 3.2-5.7-26.6-9.5-3.2 5.7z" fill="#2B2929"/><path d="M41.8 66.2l-28-10v-25l28 10v25z" fill="#fff"/><path d="M35.4 59.8L13.8 52V31.2l23 8.2v19.4c0 .7-.7 1.2-1.4 1z" fill="#fff"/><path d="M41.8 67h-.3l-28-10c-.3-.1-.5-.4-.5-.7v-25c0-.2.1-.5.3-.6.2-.1.5-.2.7-.1l28 10c.3.1.5.4.5.7v25c0 .2-.1.5-.3.6-.1.1-.3.1-.4.1zM14.5 55.7L41 65.2V41.8l-26.5-9.5v23.4z" fill="#2B2929"/><path d="M37.8 48.2l-28-10 4-7 28 10-4 7z" fill="#fff"/><path d="M33.2 43.7l-22-7.9 2.6-4.6 23.6 8.4-1.8 3.1c-.5.9-1.5 1.3-2.4 1z" fill="#fff"/><path d="M37.8 49h-.3l-28-10c-.2-.1-.4-.2-.5-.4 0-.3 0-.5.1-.7l4-7c.2-.3.6-.5.9-.3l28 10c.2.1.4.2.5.4.1.2.1.4-.1.6l-4 7c-.1.3-.4.4-.6.4zM10.9 37.8l26.6 9.5 3.2-5.7-26.6-9.5-3.2 5.7z" fill="#2B2929"/><path d="M41.8 66.2l28-10v-25l-28 10v25z" fill="#fff"/><path d="M41.8 61.8l22.7-8.1c.8-.3 1.3-1 1.3-1.9V32.7l-24 8.6v20.5z" fill="#fff"/><path d="M41.8 67c-.2 0-.3 0-.4-.1-.2-.1-.3-.4-.3-.6v-25c0-.3.2-.6.5-.7l28-10c.2-.1.5 0 .7.1.2.1.3.4.3.6v25c0 .3-.2.6-.5.7L42 67h-.2zm.7-25.2v23.4L69 55.7V32.3l-26.5 9.5z" fill="#2B2929"/><path d="M45.8 48.2l28-10-4-7-28 10 4 7z" fill="#fff"/><path d="M44.3 45.6L65.5 38c1.2-.4 1.7-1.8 1.1-2.9l-1.3-2.3-23.5 8.4 2.5 4.4z" fill="#fff"/><path d="M45.8 49c-.3 0-.5-.1-.7-.4l-4-7c-.1-.2-.1-.4 0-.6.1-.2.2-.4.5-.4l28-10c.3-.1.7 0 .9.3l4 7c.1.2.1.4.1.6-.1.2-.2.4-.5.4L46 49h-.2zm-2.9-7.3l3.2 5.7 26.6-9.5-3.2-5.7-26.6 9.5z" fill="#2B2929"/><path d="M47.8 15.5v20.3h-12V15.5h-8l14-14.3 13.9 14.3h-7.9z" fill="#fff"/><path d="M42.3 35h-5.8V15.5c0-.4-.3-.8-.8-.8h-6.2L41.8 2.3 45 5.6c.1.1.2.1.3 0l.7-.8c.1-.1.1-.2 0-.3L42.3.7c-.1-.1-.3-.2-.5-.2s-.4.1-.5.2L27.2 15c-.2.2-.3.5-.2.8.1.3.4.5.7.5H35v19.5c0 .4.3.8.8.8h6.5c.1 0 .2-.1.2-.2v-1.1c0-.2-.1-.3-.2-.3z" fill="#FFBC57"/><path d="M47 5.9l-.8.8c-.1.1-.1.2 0 .3l7.7 7.8h-6.2c-.4 0-.8.3-.8.8V35h-2.8c-.1 0-.1.1-.1.2v1.1c0 .1.1.2.2.2h3.6c.4 0 .8-.3.8-.8V16.3h7.2c.3 0 .6-.2.7-.5.1-.3.1-.6-.2-.8l-8.9-9.1c-.1-.1-.3-.1-.4 0z" fill="#2B2929"/></svg>