<svg width="76" height="80" fill="none" xmlns="http://www.w3.org/2000/svg"><path d="M60.318 40.846c8.181 0 14.814-6.632 14.814-14.814S68.5 11.217 60.317 11.217c-8.181 0-14.814 6.633-14.814 14.815 0 8.182 6.633 14.814 14.815 14.814zM19.683 25.397c7.013 0 12.698-5.685 12.698-12.699C32.381 5.685 26.696 0 19.683 0 12.669 0 6.984 5.685 6.984 12.698c0 7.014 5.685 12.699 12.699 12.699zM21.164 80c11.689 0 21.164-9.475 21.164-21.164 0-11.689-9.475-21.164-21.164-21.164C9.475 37.672 0 47.147 0 58.836 0 70.525 9.475 80 21.164 80z" fill="#FFBC57"/><path d="M37.355 23.386c-6.985.847-12.699 6.455-13.651 13.333-.53 3.704.211 7.196 1.904 10.16l-2.116 8.147 8.148-2.01c2.963 1.693 6.455 2.434 10.159 1.904 6.984-1.058 12.487-6.666 13.333-13.65 1.27-10.477-7.407-19.154-17.777-17.884z" fill="#fff"/><path d="M39.365 55.873c-2.751 0-5.397-.635-7.83-2.01l-7.831 1.904c-.318.106-.53 0-.741-.212-.212-.211-.318-.529-.212-.74l1.905-7.831a16.75 16.75 0 01-1.799-10.37c1.058-7.408 6.984-13.122 14.392-14.075 5.185-.635 10.264 1.059 13.862 4.762 3.704 3.704 5.397 8.677 4.762 13.863-.952 7.407-6.667 13.333-14.074 14.391a9.022 9.022 0 01-2.434.318zm-7.725-3.704c.106 0 .318 0 .423.106 2.963 1.693 6.244 2.222 9.63 1.799 6.667-.953 11.852-6.35 12.699-13.016.529-4.656-.953-9.312-4.34-12.593-3.28-3.28-7.936-4.867-12.592-4.338-6.666.846-12.063 6.031-13.015 12.698-.53 3.386.105 6.667 1.798 9.63.106.211.106.423.106.529l-1.693 6.984 6.878-1.693c0-.106.106-.106.106-.106z" fill="#2B2929"/><path d="M39.365 44.339a.835.835 0 01-.846-.847v-.635c0-2.54 1.481-3.703 2.645-4.55 1.058-.74 1.799-1.376 1.799-2.857 0-1.693-1.058-3.069-2.54-3.492-1.164-.318-2.434-.106-3.386.529-.952.74-1.481 1.799-1.481 2.963a.835.835 0 01-.847.846.835.835 0 01-.847-.846c0-1.693.847-3.28 2.117-4.233 1.376-1.058 3.069-1.27 4.762-.847 2.222.635 3.703 2.646 3.703 5.08 0 2.328-1.375 3.28-2.54 4.127-1.057.846-2.01 1.481-2.01 3.28v.635c.318.53 0 .847-.529.847zm.741 3.068a1.023 1.023 0 00-1.482 0c-.211.212-.317.424-.317.741s.106.53.317.74c.212.212.424.318.741.318s.53-.106.74-.317c.213-.212.318-.424.318-.741s-.105-.635-.317-.74z" fill="#FFBC57"/><path d="M39.365 70.9a.835.835 0 01-.846-.847c0-.424.317-.847.846-.847 16.508 0 29.947-13.439 29.947-29.947 0-16.296-13.439-29.735-29.947-29.735-16.402 0-29.841 13.439-29.841 29.841 0 .53-.318.846-.847.846a.835.835 0 01-.846-.846c0-17.355 14.074-31.534 31.428-31.534 17.355 0 31.64 14.18 31.64 31.534S56.72 70.899 39.366 70.899z" fill="#2B2929"/><path d="M42.54 73.228h-6.35a4.245 4.245 0 01-4.232-4.233 4.245 4.245 0 014.232-4.233h6.35a4.245 4.245 0 014.233 4.233c0 2.434-1.8 4.233-4.233 4.233z" fill="#fff"/><path d="M42.54 74.074h-6.35c-2.75 0-5.079-2.222-5.079-5.08 0-2.75 2.222-5.079 5.08-5.079h6.349c2.751 0 5.079 2.222 5.079 5.08 0 2.856-2.222 5.079-5.08 5.079zm-6.35-8.466c-1.904 0-3.492 1.587-3.492 3.492s1.588 3.492 3.492 3.492h6.35c1.904 0 3.492-1.587 3.492-3.492 0-1.904-1.588-3.492-3.492-3.492h-6.35z" fill="#2B2929"/><path d="M13.968 51.005c-4.656 0-8.465-3.809-8.465-8.465v-6.35c0-4.655 3.81-8.465 8.465-8.465 1.164 0 2.117.952 2.117 2.116V48.89c0 1.27-.953 2.116-2.117 2.116z" fill="#fff"/><path d="M13.968 51.852c-5.08 0-9.312-4.127-9.312-9.312v-6.35c0-5.079 4.127-9.312 9.312-9.312a2.958 2.958 0 012.963 2.963V48.89c0 1.693-1.27 2.963-2.963 2.963zm0-23.28c-4.233 0-7.725 3.492-7.725 7.724v6.35c0 4.232 3.492 7.724 7.725 7.724a1.4 1.4 0 001.376-1.375V29.947a1.4 1.4 0 00-1.376-1.375z" fill="#2B2929"/><path d="M10.794 46.561a.835.835 0 01-.847-.847V33.016c0-.423.318-.847.847-.847.423 0 .846.318.846.847v12.698c0 .53-.317.847-.846.847z" fill="#2B2929"/><path d="M64.762 51.005a2.123 2.123 0 01-2.116-2.116V29.841c0-1.164.952-2.116 2.116-2.116 4.656 0 8.466 3.81 8.466 8.466v6.349c0 4.762-3.704 8.465-8.466 8.465z" fill="#fff"/><path d="M64.762 51.852c-1.587 0-2.857-1.27-2.857-2.963V29.841c0-1.587 1.27-2.963 2.857-2.963 5.08 0 9.312 4.127 9.312 9.313v6.349a9.259 9.259 0 01-9.312 9.312zm0-23.28c-.74 0-1.27.634-1.27 1.375v19.048c0 .74.635 1.376 1.27 1.376 4.233 0 7.725-3.493 7.725-7.725v-6.35a7.7 7.7 0 00-7.725-7.724z" fill="#2B2929"/><path d="M67.936 46.561a.835.835 0 01-.846-.847V33.016c0-.423.317-.847.846-.847.424 0 .847.318.847.847v12.698c0 .53-.317.847-.847.847z" fill="#2B2929"/><path d="M21.481 18.519c.106-.106.106 0 0 0-.211.106-.529.317-.846.423.423-.106.635-.212.846-.423z" fill="#FFBC57"/><path d="M39.365 5.503c-8.466 0-16.19 3.069-22.116 8.254-1.058.847-1.058 2.434-.106 3.386l1.27 1.27c.846.846 2.222.846 3.174.106 4.762-4.127 11.006-6.561 17.884-6.561 6.772 0 13.122 2.434 17.884 6.56.952.741 2.328.741 3.174-.105l1.27-1.27c.952-.952.952-2.54-.106-3.386-6.032-5.08-13.862-8.254-22.328-8.254z" fill="#fff"/><path d="M58.836 19.894c-.74 0-1.481-.212-2.01-.74-4.868-4.234-11.006-6.456-17.46-6.456-6.35 0-12.488 2.328-17.355 6.455-1.27 1.059-3.07 1.059-4.233-.106l-1.27-1.27a3.283 3.283 0 01-.952-2.328c0-.846.423-1.693 1.058-2.222 6.243-5.397 14.285-8.465 22.645-8.465s16.402 2.963 22.646 8.465c.635.53 1.058 1.376 1.058 2.223 0 .846-.318 1.693-.952 2.328l-1.27 1.27c-.318.529-1.164.846-1.905.846zm-19.47-8.783c6.772 0 13.227 2.434 18.412 6.772.635.53 1.481.53 2.116-.105l1.27-1.27c.317-.318.423-.741.423-1.164 0-.424-.211-.847-.529-1.058-6.032-5.08-13.756-7.937-21.693-7.937-7.936 0-15.661 2.857-21.587 8.042-.318.318-.53.635-.53 1.059 0 .423.107.846.424 1.164l1.27 1.27c.529.529 1.481.634 2.116.105a27.901 27.901 0 0118.307-6.878z" fill="#2B2929"/></svg>