<svg width="22" height="20" viewBox="0 0 22 20" fill="none" xmlns="http://www.w3.org/2000/svg">
<path fill-rule="evenodd" clip-rule="evenodd" d="M18.5 8.5H3.5C3.08638 8.5 2.70284 8.64006 2.42145 8.92145C2.14006 9.20284 2 9.58638 2 10C2 10.4136 2.14006 10.7972 2.42145 11.0786C2.70284 11.3599 3.08638 11.5 3.5 11.5H18.5C18.9136 11.5 19.2972 11.3599 19.5786 11.0786C19.8599 10.7972 20 10.4136 20 10C20 9.58638 19.8599 9.20284 19.5786 8.92145C19.2972 8.64006 18.9136 8.5 18.5 8.5ZM1.5 3.5H20.5C20.9136 3.5 21.2972 3.35994 21.5786 3.07855C21.8599 2.79716 22 2.41362 22 2C22 1.58638 21.8599 1.20284 21.5786 0.921447C21.2972 0.640057 20.9136 0.5 20.5 0.5H1.5C1.08638 0.5 0.702836 0.640057 0.421447 0.921447C0.140057 1.20284 0 1.58638 0 2C0 2.41362 0.140057 2.79716 0.421447 3.07855C0.702836 3.35994 1.08638 3.5 1.5 3.5ZM16.5 16.5H5.5C5.08638 16.5 4.70284 16.6401 4.42145 16.9214C4.14006 17.2028 4 17.5864 4 18C4 18.4136 4.14006 18.7972 4.42145 19.0786C4.70284 19.3599 5.08638 19.5 5.5 19.5H16.5C16.9136 19.5 17.2972 19.3599 17.5786 19.0786C17.8599 18.7972 18 18.4136 18 18C18 17.5864 17.8599 17.2028 17.5786 16.9214C17.2972 16.6401 16.9136 16.5 16.5 16.5Z" fill="#535353"/>
</svg>
