<svg width="40" height="40" fill="none" xmlns="http://www.w3.org/2000/svg"><g clip-path="url(#clip0_68_385)"><path d="M20 0C8.954 0 0 8.954 0 20s8.954 20 20 20 20-8.954 20-20S31.046 0 20 0z" fill="#40B3E0"/><path d="M29.586 11.691l-3.572 18.011s-.5 1.25-1.873.65l-8.244-6.32-2.998-1.45-5.045-1.698s-.775-.275-.85-.874c-.075-.6.875-.924.875-.924l20.058-7.87s1.65-.723 1.65.476z" fill="#fff"/><path d="M15.41 29.313s-.242-.022-.541-.972c-.3-.949-1.824-5.945-1.824-5.945l12.115-7.694s.7-.424.675 0c0 0 .125.075-.25.425s-9.517 8.568-9.517 8.568" fill="#D2E5F1"/><path d="M19.203 26.268l-3.26 2.973s-.255.193-.534.072l.624-5.522" fill="#B5CFE4"/></g><defs><clipPath id="clip0_68_385"><path fill="#fff" d="M0 0h40v40H0z"/></clipPath></defs></svg>