<svg width="40" height="40" fill="none" xmlns="http://www.w3.org/2000/svg"><g clip-path="url(#clip0_68_380)"><path d="M20 40c11.046 0 20-8.954 20-20S31.046 0 20 0 0 8.954 0 20s8.954 20 20 20z" fill="#75B73B"/><path d="M19.44 8.472c-6.096.29-10.906 5.367-10.888 11.47a11.398 11.398 0 001.246 5.164l-1.215 5.9a.446.446 0 00.539.523l5.78-1.37a11.392 11.392 0 004.92 1.194c6.23.095 11.426-4.852 11.62-11.08.208-6.677-5.302-12.12-12.002-11.8zm6.898 17.773A8.905 8.905 0 0120 28.87a8.87 8.87 0 01-3.99-.935l-.804-.4-3.545.839.746-3.622-.396-.776a8.863 8.863 0 01-.975-4.07c0-2.394.933-4.645 2.626-6.338A8.979 8.979 0 0120 10.943c2.394 0 4.645.932 6.338 2.625a8.905 8.905 0 012.625 6.338 8.98 8.98 0 01-2.625 6.339z" fill="#fff"/><path d="M25.556 22.39l-2.218-.637a.827.827 0 00-.818.215l-.542.552a.807.807 0 01-.878.186c-1.049-.424-3.256-2.387-3.819-3.368a.807.807 0 01.064-.895l.473-.613a.826.826 0 00.102-.84l-.933-2.11a.827.827 0 00-1.29-.295c-.62.524-1.354 1.319-1.443 2.2-.157 1.554.509 3.512 3.028 5.864 2.91 2.717 5.242 3.076 6.76 2.708.86-.208 1.549-1.044 1.982-1.729a.827.827 0 00-.468-1.239z" fill="#fff"/></g><defs><clipPath id="clip0_68_380"><path fill="#fff" d="M0 0h40v40H0z"/></clipPath></defs></svg>