<?xml version="1.0" encoding="utf-8"?><svg viewBox="0 0 33 33" xmlns="http://www.w3.org/2000/svg" xmlns:xlink="http://www.w3.org/1999/xlink"><style>:root>svg{display:none}:root>svg:target{display:block}</style><svg viewBox="0 0 12 8" id="arrow" xmlns="http://www.w3.org/2000/svg"><path d="m6.71 6.83 4.24-4.24a1 1 0 0 0-.705-1.71 1 1 0 0 0-.705.29L6 4.71 2.46 1.17a1 1 0 0 0-1.41 0 1 1 0 0 0-.29.71 1 1 0 0 0 .29.71l4.24 4.24a1 1 0 0 0 1.42 0Z"/></svg><svg viewBox="0 0 12 12" id="arrow-forward" xmlns="http://www.w3.org/2000/svg"><path d="M11.92.62a1 1 0 0 0-.54-.54A1 1 0 0 0 11 0H1a1 1 0 0 0 0 2h7.59l-8.3 8.29a1 1 0 0 0 .325 1.639 1 1 0 0 0 1.095-.219L10 3.41V11a1 1 0 0 0 2 0V1a.997.997 0 0 0-.08-.38Z"/></svg><svg viewBox="0 0 12 20" id="arrow-slider" xmlns="http://www.w3.org/2000/svg"><path d="M11.03 8.897 2.56.443a1.496 1.496 0 1 0-2.125 2.11l7.407 7.481-7.407 7.407a1.496 1.496 0 0 0 0 2.11A1.495 1.495 0 0 0 1.498 20a1.495 1.495 0 0 0 1.062-.449l8.47-8.454a1.496 1.496 0 0 0 0-2.2Z"/></svg><svg viewBox="0 0 25 25" id="cart" xmlns="http://www.w3.org/2000/svg"><path d="M14.997 20.016c.333 0 .652-.131.887-.365.235-.233.367-.55.367-.88v-2.492c0-.33-.132-.648-.367-.881a1.259 1.259 0 0 0-1.774 0c-.235.233-.368.55-.368.88v2.492c0 .33.133.648.368.881.235.234.554.365.887.365Zm-5.018 0c.333 0 .652-.131.887-.365.235-.233.367-.55.367-.88v-2.492c0-.33-.132-.648-.367-.881a1.258 1.258 0 0 0-1.774 0c-.235.233-.368.55-.368.88v2.492c0 .33.133.648.368.881.235.234.554.365.887.365Zm11.29-14.95h-1.73L17.367.766a1.244 1.244 0 0 0-.723-.69 1.262 1.262 0 0 0-1.402.374 1.244 1.244 0 0 0-.108 1.437l1.593 3.177h-8.48L9.84 1.888a1.238 1.238 0 0 0-.592-1.59 1.262 1.262 0 0 0-1.641.469l-2.17 4.298H3.706a3.778 3.778 0 0 0-2.41.915 3.716 3.716 0 0 0-.754 4.755 3.759 3.759 0 0 0 2.01 1.607l.928 9.294a3.729 3.729 0 0 0 1.227 2.405c.696.622 1.6.964 2.537.959h10.513a3.78 3.78 0 0 0 2.536-.96 3.73 3.73 0 0 0 1.227-2.404l.929-9.294a3.759 3.759 0 0 0 2.012-1.612 3.717 3.717 0 0 0-.771-4.762 3.779 3.779 0 0 0-2.42-.903ZM19 21.385a1.243 1.243 0 0 1-.41.802 1.259 1.259 0 0 1-.845.32H7.231a1.259 1.259 0 0 1-.845-.32 1.243 1.243 0 0 1-.409-.801l-.89-8.846H19.89l-.891 8.846Zm2.27-11.337H3.707c-.332 0-.651-.131-.887-.365a1.242 1.242 0 0 1 0-1.762c.236-.234.555-.365.887-.365H21.27c.333 0 .652.131.888.365a1.242 1.242 0 0 1 0 1.762 1.259 1.259 0 0 1-.887.365Z"/></svg><svg viewBox="0 0 28 28" id="check-mark" xmlns="http://www.w3.org/2000/svg"><path d="m17.624 9.72-5.72 5.733-2.2-2.2a1.334 1.334 0 1 0-1.88 1.88l3.133 3.147a1.335 1.335 0 0 0 1.88 0l6.667-6.667a1.335 1.335 0 1 0-1.88-1.893ZM13.997.667a13.333 13.333 0 1 0 0 26.666 13.333 13.333 0 0 0 0-26.666Zm0 24a10.667 10.667 0 1 1 0-21.335 10.667 10.667 0 0 1 0 21.335Z"/></svg><svg viewBox="0 0 20 20" id="credit" xmlns="http://www.w3.org/2000/svg"><path d="M10 0C4.5 0 0 4.5 0 10s4.5 10 10 10 10-4.5 10-10S15.5 0 10 0Zm0 2c4 0 7.4 3 7.9 7H10V2Zm4 14.9L10.6 11H18c-.4 2.5-1.8 4.7-4 5.9Z"/></svg><svg viewBox="0 0 26 23" id="favorite" xmlns="http://www.w3.org/2000/svg"><path d="M23.563 2.437a8.156 8.156 0 0 0-10.58-.83A8.13 8.13 0 0 0 2.4 13.899l8.053 8.066a3.605 3.605 0 0 0 5.057 0l8.052-8.066a8.13 8.13 0 0 0 0-11.462Zm-1.828 9.673-8.053 8.052a.985.985 0 0 1-1.4 0L4.23 12.071a5.563 5.563 0 0 1 0-7.78 5.537 5.537 0 0 1 7.78 0 1.295 1.295 0 0 0 1.841 0 5.537 5.537 0 0 1 7.78 0 5.563 5.563 0 0 1 .104 7.78v.039Z"/></svg><svg viewBox="0 0 18 22" id="location" xmlns="http://www.w3.org/2000/svg"><path d="M8.8 0A8.8 8.8 0 0 0 0 8.8c0 5.94 7.755 12.65 8.085 12.936a1.1 1.1 0 0 0 1.43 0C9.9 21.45 17.6 14.74 17.6 8.8A8.8 8.8 0 0 0 8.8 0Zm0 19.415c-2.343-2.2-6.6-6.941-6.6-10.615a6.6 6.6 0 0 1 13.2 0c0 3.674-4.257 8.426-6.6 10.615ZM8.8 4.4a4.4 4.4 0 1 0 0 8.8 4.4 4.4 0 0 0 0-8.8Zm0 6.6a2.2 2.2 0 1 1 0-4.4 2.2 2.2 0 0 1 0 4.4Z"/></svg><svg viewBox="0 0 20 20" id="phone" xmlns="http://www.w3.org/2000/svg"><path d="M17.408 11c-.22 0-.45-.07-.67-.12-.445-.1-.883-.23-1.31-.39a2 2 0 0 0-2.48 1l-.22.46a13.176 13.176 0 0 1-2.67-2 13.171 13.171 0 0 1-2-2.67l.46-.21a2 2 0 0 0 1-2.48 10.47 10.47 0 0 1-.39-1.32c-.05-.22-.09-.45-.12-.67a3 3 0 0 0-3-2.49h-3.01a3 3 0 0 0-2.24 1 3 3 0 0 0-.73 2.4 19.07 19.07 0 0 0 5.41 11 19.07 19.07 0 0 0 11 5.41c.13.01.26.01.39 0a3 3 0 0 0 2.74-1.773c.171-.386.26-.804.26-1.227v-3a3 3 0 0 0-2.42-2.92Zm.49 6a.998.998 0 0 1-.33.74.999.999 0 0 1-.82.25 17.16 17.16 0 0 1-9.87-4.84 17.16 17.16 0 0 1-4.88-9.9 1 1 0 0 1 .59-1.065 1 1 0 0 1 .41-.085h3a1 1 0 0 1 1 .78c0 .27.09.55.15.82a11 11 0 0 0 .46 1.54l-1.4.66a1 1 0 0 0-.52.56 1 1 0 0 0 0 .76 14.49 14.49 0 0 0 7 7 1 1 0 0 0 .76 0 1 1 0 0 0 .56-.52l.63-1.4a12.415 12.415 0 0 0 2.39.61 1 1 0 0 1 .78 1l.09 3.09Zm-5.9-17h-.7a1.004 1.004 0 0 0 .17 2h.53a6 6 0 0 1 6 6v.53a1 1 0 0 0 .91 1.08h.08a1 1 0 0 0 1-.91V8a8 8 0 0 0-7.99-8Zm2 8a1 1 0 0 0 2 0 4 4 0 0 0-4-4 1 1 0 0 0 0 2 2 2 0 0 1 2 2Z"/></svg><svg viewBox="0 0 8 8" id="remove" xmlns="http://www.w3.org/2000/svg"><path d="M7.71.29a1 1 0 0 0-1.42 0L4 2.59 1.71.29A1.004 1.004 0 0 0 .29 1.71L2.59 4 .29 6.29a1 1 0 0 0 0 1.42 1 1 0 0 0 1.42 0L4 5.41l2.29 2.3a1 1 0 0 0 1.42 0 1 1 0 0 0 0-1.42L5.41 4l2.3-2.29a1 1 0 0 0 0-1.42Z"/></svg><svg viewBox="0 0 24 24" id="sale" xmlns="http://www.w3.org/2000/svg"><path d="M20.49 3.51c-4.682-4.68-12.298-4.68-16.98 0-4.68 4.682-4.68 12.298 0 16.98A11.97 11.97 0 0 0 12 24a11.97 11.97 0 0 0 8.49-3.51c4.68-4.682 4.68-12.298 0-16.98ZM7.727 5.648A2.333 2.333 0 0 1 9.39 4.96c.628 0 1.219.245 1.662.689.444.443.688 1.033.688 1.66 0 .628-.244 1.218-.688 1.662a2.333 2.333 0 0 1-1.662.688 2.333 2.333 0 0 1-1.66-.688 2.333 2.333 0 0 1-.689-1.661c0-.628.244-1.218.688-1.662Zm.396 11.337a.78.78 0 0 1-1.108 0 .783.783 0 0 1 0-1.108l8.86-8.86a.783.783 0 1 1 1.108 1.108l-8.86 8.86Zm8.67.854a2.333 2.333 0 0 1-1.662.688 2.333 2.333 0 0 1-1.661-.688 2.332 2.332 0 0 1-.688-1.661c0-.628.244-1.218.688-1.662a2.333 2.333 0 0 1 1.662-.688c.627 0 1.218.245 1.661.689.444.444.688 1.033.688 1.66 0 .628-.244 1.218-.688 1.662Z"/></svg><svg viewBox="0 0 22 22" id="schedule" xmlns="http://www.w3.org/2000/svg"><path d="M18.7 2.2h-2.2V1.1a1.1 1.1 0 0 0-2.2 0v1.1H7.7V1.1a1.1 1.1 0 1 0-2.2 0v1.1H3.3A3.3 3.3 0 0 0 0 5.5v13.2A3.3 3.3 0 0 0 3.3 22h15.4a3.3 3.3 0 0 0 3.3-3.3V5.5a3.3 3.3 0 0 0-3.3-3.3Zm1.1 16.5a1.1 1.1 0 0 1-1.1 1.1H3.3a1.1 1.1 0 0 1-1.1-1.1V11h17.6v7.7Zm0-9.9H2.2V5.5a1.1 1.1 0 0 1 1.1-1.1h2.2v1.1a1.1 1.1 0 1 0 2.2 0V4.4h6.6v1.1a1.1 1.1 0 0 0 2.2 0V4.4h2.2a1.1 1.1 0 0 1 1.1 1.1v3.3Z"/></svg><svg viewBox="0 0 33 33" id="star" xmlns="http://www.w3.org/2000/svg"><path d="M31.501 12.933v.002-.002Zm-.007-.037c.005.02.006.033.006.04l-.093.095-6.76 6.917-.532.545.126.75 1.647 9.85a.39.39 0 0 1-.052.285.277.277 0 0 1-.044.051H25.595l-8.38-4.653-.728-.405-.728.405-8.408 4.669-.036.02-.035.022a.136.136 0 0 1-.025.013.306.306 0 0 1-.137-.11 2.003 2.003 0 0 1-.013-.24l1.629-9.733.125-.751-.532-.545-6.75-6.908a.25.25 0 0 1-.077-.172c0-.045.015-.107.08-.175l.058-.06.064-.01 9.398-1.384.806-.118.34-.74 4.085-8.915c.07-.102.136-.132.153-.137l.004-.002a.137.137 0 0 1 .025.013l.05.032.05.026c0 .003.002.006.004.01l4.287 8.993.344.722.791.116 9.398 1.384.018.003c.017.03.031.064.039.097ZM7.125 31.42v.002-.002Z" stroke="#B1B1B1" stroke-width="3"/></svg></svg>