<svg width="34" height="32" fill="none" xmlns="http://www.w3.org/2000/svg"><path d="M33.666 12.117A1.667 1.667 0 0032.233 11L22.75 9.617 18.5 1a1.667 1.667 0 00-3 0l-4.25 8.6L1.766 11a1.667 1.667 0 00-1.35 1.133A1.667 1.667 0 00.833 13.8l6.883 6.667-1.666 9.466a1.667 1.667 0 002.45 1.8l8.5-4.45 8.5 4.45c.234.132.498.201.767.2.352.002.697-.11.983-.316a1.667 1.667 0 00.666-1.667l-1.666-9.467 6.883-6.666a1.667 1.667 0 00.533-1.7zm-10.25 6.666a1.667 1.667 0 00-.483 1.467l1.2 7-6.267-3.333a1.767 1.767 0 00-1.566 0l-6.267 3.333 1.2-7a1.667 1.667 0 00-.483-1.467l-5-5 7.017-1.016a1.668 1.668 0 001.266-.917L17 5.5l3.133 6.367a1.668 1.668 0 001.267.916l7.017 1.017-5 4.983z" fill="#B1B1B1"/></svg>