<svg width="21" height="20" fill="none" xmlns="http://www.w3.org/2000/svg"><path d="M20.001 7.67a1 1 0 00-.86-.67l-5.69-.83L10.901 1a1 1 0 00-1.8 0l-2.55 5.16L.861 7a1 1 0 00-.81.68 1 1 0 00.25 1l4.13 4-1 5.68a1 1 0 001.47 1.08l5.1-2.67 5.1 2.67c.14.08.3.12.46.12a1 1 0 00.59-.19 1 1 0 00.4-1l-1-5.68 4.13-4a1 1 0 00.32-1.02zm-6.15 4a1 1 0 00-.29.88l.72 4.2-3.76-2a1.06 1.06 0 00-.94 0l-3.76 2 .72-4.2a1 1 0 00-.29-.88l-3-3 4.21-.61a1 1 0 00.76-.55l1.78-3.81 1.88 3.82a1 1 0 00.76.55l4.21.61-3 2.99z" fill="#FFBC57"/></svg>