<svg width="22" height="20" fill="none" xmlns="http://www.w3.org/2000/svg"><path fill-rule="evenodd" clip-rule="evenodd" d="M18.5 8.5h-15c-.414 0-.797.14-1.079.421C2.141 9.203 2 9.586 2 10c0 .414.14.797.421 1.079.282.28.665.421 1.079.421h15c.414 0 .797-.14 1.079-.421.28-.282.421-.665.421-1.079 0-.414-.14-.797-.421-1.079A1.506 1.506 0 0018.5 8.5zm-17-5h19c.414 0 .797-.14 1.079-.421.28-.282.421-.665.421-1.079 0-.414-.14-.797-.421-1.079A1.506 1.506 0 0020.5.5h-19C1.086.5.703.64.421.921.141 1.203 0 1.586 0 2c0 .414.14.797.421 1.079.282.28.665.421 1.079.421zm15 13h-11c-.414 0-.797.14-1.079.421C4.141 17.203 4 17.586 4 18c0 .414.14.797.421 1.079.282.28.665.421 1.079.421h11c.414 0 .797-.14 1.079-.421.28-.282.421-.665.421-1.079 0-.414-.14-.797-.421-1.079A1.506 1.506 0 0016.5 16.5z" fill="#535353"/></svg>