<svg width="32" height="40" fill="none" xmlns="http://www.w3.org/2000/svg"><path d="M31.27 3.298a2 2 0 00-1.68-.4A16.005 16.005 0 0117.144.357a2 2 0 00-2.28 0A16.006 16.006 0 012.42 2.897 2 2 0 000 4.859v14.905a18.006 18.006 0 007.542 14.665l7.303 5.201a2 2 0 002.32 0l7.303-5.201a18.006 18.006 0 007.542-14.665V4.858a2 2 0 00-.74-1.56zm-3.261 16.465a14.005 14.005 0 01-5.862 11.403l-6.142 4.382-6.142-4.382a14.005 14.005 0 01-5.862-11.403V7.159a20.006 20.006 0 0012.004-2.78 20.006 20.006 0 0012.004 2.78v12.604zm-8.923-4.582l-5.382 5.402-1.78-1.8a2.009 2.009 0 10-2.841 2.84l3.2 3.201a2 2 0 002.842 0l6.882-6.822a2.009 2.009 0 10-2.841-2.84l-.08.02z" fill="#FFBC57"/></svg>