<svg width="40" height="40" fill="none" xmlns="http://www.w3.org/2000/svg"><path d="M38.182 29.09H1.818a1.818 1.818 0 000 3.637h36.364a1.818 1.818 0 000-3.636zm0 7.274H1.818a1.818 1.818 0 000 3.636h36.364a1.819 1.819 0 000-3.636zM9.09 10.909a1.818 1.818 0 100 3.636 1.818 1.818 0 000-3.636zM34.545 0H5.455A5.455 5.455 0 000 5.455V20a5.454 5.454 0 005.455 5.454h29.09A5.454 5.454 0 0040 20V5.455A5.455 5.455 0 0034.545 0zm1.819 20a1.818 1.818 0 01-1.819 1.818H5.455A1.818 1.818 0 013.636 20V5.455a1.818 1.818 0 011.819-1.819h29.09a1.818 1.818 0 011.819 1.819V20zM20 7.273a5.455 5.455 0 100 10.909 5.455 5.455 0 000-10.91zm0 7.273a1.818 1.818 0 110-3.637 1.818 1.818 0 010 3.636zm10.91-3.637a1.818 1.818 0 10-.001 3.636 1.818 1.818 0 000-3.636z" fill="#FFBC57"/></svg>