<svg width="41" height="40" fill="none" xmlns="http://www.w3.org/2000/svg"><path d="M22.829 9.229a2.217 2.217 0 000 3.15l4.26 4.26a2.218 2.218 0 003.15 0l9.052-9.052a2.218 2.218 0 10-3.15-3.084l-7.477 7.432-2.685-2.706a2.218 2.218 0 00-3.15 0zm14.687 7.787a2.219 2.219 0 00-2.02 2.396 5.36 5.36 0 010 .621 15.53 15.53 0 01-15.529 15.53H7.565l1.42-1.398a2.219 2.219 0 000-3.128 15.53 15.53 0 017.72-26.201 15.84 15.84 0 016.213 0 2.263 2.263 0 00.887-4.437 20.3 20.3 0 00-8.009 0A20.078 20.078 0 000 20.033a19.967 19.967 0 004.437 12.468L.643 36.206a2.218 2.218 0 00-.466 2.418A2.218 2.218 0 002.22 40h17.748a19.967 19.967 0 0019.967-19.967v-.976a2.219 2.219 0 00-2.418-2.041z" fill="#FFBC57"/></svg>