<svg width="80" height="78" fill="none" xmlns="http://www.w3.org/2000/svg"><path d="M66.173 39.802c7.636 0 13.827-6.19 13.827-13.827 0-7.636-6.19-13.827-13.827-13.827s-13.827 6.19-13.827 13.827 6.19 13.827 13.827 13.827zM34.272 23.704c6.545 0 11.852-5.307 11.852-11.852C46.123 5.306 40.816 0 34.272 0 27.726 0 22.42 5.306 22.42 11.852c0 6.545 5.306 11.852 11.852 11.852zM19.753 77.531c10.91 0 19.753-8.844 19.753-19.753 0-10.91-8.844-19.753-19.753-19.753C8.843 38.025 0 46.869 0 57.778c0 10.91 8.844 19.753 19.753 19.753z" fill="#FFBC57"/><path d="M69.037 40.63l-5.136-2.174H50.074a3.962 3.962 0 01-3.95-3.95V19.69H39.21v39.506h27.457c.79 0 1.58-.296 2.074-.889l1.185-1.185c.593-.593.889-1.284.889-2.074V43.296c0-1.185-.692-2.272-1.778-2.667z" fill="#fff"/><path d="M63.111 40.63l-5.136-2.174h-7.901a3.962 3.962 0 01-3.95-3.95V19.69H39.21v39.506h21.53c.79 0 1.58-.296 2.075-.889L64 57.123c.593-.593.889-1.284.889-2.074V43.296c0-1.185-.691-2.272-1.778-2.667z" fill="#fff"/><path d="M60.938 46.357l2.963 5.926h6.914v-5.926h-9.877z" fill="#fff"/><path d="M60.938 46.357l1.975 3.951h3.951c.593 0 .988-.395.988-.988v-2.963h-6.914z" fill="#fff"/><path d="M70.815 52.975H63.9c-.296 0-.494-.197-.691-.395l-2.963-5.926a.844.844 0 010-.691c.099-.198.395-.395.593-.395h9.876c.395 0 .79.296.79.79v5.926c.099.395-.197.691-.691.691zm-6.42-1.481h5.729v-4.445h-7.902l2.173 4.445z" fill="#2B2929"/><path d="M50.074 38.456h13.827L56.296 22.95c-.987-1.975-3.062-3.26-5.333-3.26h-4.84v14.816a3.962 3.962 0 003.951 3.95z" fill="#fff"/><path d="M56.296 22.95c-.987-1.975-3.062-3.26-5.333-3.26h-4.84c2.173 0 4.247 1.285 5.235 3.26l7.605 15.506H63.9L56.296 22.95z" fill="#fff"/><path d="M63.901 39.148H50.074c-2.568 0-4.74-2.074-4.74-4.642V19.69c0-.395.296-.79.79-.79h4.839c2.568 0 4.84 1.383 6.025 3.753l7.605 15.506a.843.843 0 010 .692c-.198.197-.395.296-.692.296zM46.914 20.382v14.124c0 1.778 1.481 3.16 3.259 3.16h12.642l-7.111-14.42a5.15 5.15 0 00-4.642-2.864h-4.148z" fill="#2B2929"/><path d="M9.58 11.79a1.981 1.981 0 00-1.975 1.975v43.457c0 1.086.889 1.975 1.975 1.975h29.63V13.765a1.981 1.981 0 00-1.975-1.975H9.58z" fill="#fff"/><path d="M9.58 11.79a1.981 1.981 0 00-1.975 1.975v40.494h23.704a1.981 1.981 0 001.975-1.976V11.79H9.58z" fill="#fff"/><path d="M39.21 59.889H9.58a2.76 2.76 0 01-2.765-2.766V13.667C6.914 12.185 8.099 11 9.58 11h27.655A2.76 2.76 0 0140 13.765v45.432c0 .396-.296.692-.79.692zM9.58 12.482c-.691 0-1.284.592-1.284 1.283v43.457c0 .692.593 1.284 1.284 1.284h28.94v-44.74c0-.692-.593-1.284-1.284-1.284H9.58z" fill="#2B2929"/><path d="M66.667 59.889H39.21a.779.779 0 01-.79-.79V19.592c0-.395.296-.79.79-.79h6.913c.396 0 .79.297.79.79v14.815c0 1.778 1.482 3.16 3.26 3.16H64c.099 0 .198 0 .296.1l5.136 2.172c1.383.593 2.272 1.877 2.272 3.358v11.655c0 .987-.395 1.876-1.087 2.666l-1.185 1.185c-.889.79-1.778 1.186-2.765 1.186zM40 58.407h26.667c.592 0 1.185-.197 1.58-.691l1.185-1.185c.395-.395.692-.988.692-1.58V43.295c0-.889-.494-1.679-1.383-2.074l-4.938-2.173H50.074c-2.568 0-4.74-2.074-4.74-4.642V20.383H39.9v38.024h.1z" fill="#2B2929"/><path d="M23.407 65.123a5.926 5.926 0 100-11.852 5.926 5.926 0 000 11.852z" fill="#fff"/><path d="M26.568 54.062c.592.888.889 1.975.889 3.061 0 3.26-2.667 5.926-5.926 5.926-1.087 0-2.173-.296-3.062-.889 1.086 1.68 2.864 2.865 5.037 2.865 3.26 0 5.926-2.667 5.926-5.926-.099-2.074-1.185-3.951-2.864-5.037z" fill="#fff"/><path d="M23.407 65.814c-3.654 0-6.716-2.962-6.716-6.716 0-3.654 2.963-6.716 6.716-6.716s6.716 2.963 6.716 6.716c0 3.754-2.963 6.716-6.716 6.716zm0-11.851c-2.864 0-5.234 2.37-5.234 5.234s2.37 5.235 5.235 5.235c2.864 0 5.234-2.37 5.234-5.235 0-2.864-2.37-5.234-5.235-5.234z" fill="#2B2929"/><path d="M23.407 61.172a1.975 1.975 0 100-3.95 1.975 1.975 0 000 3.95z" fill="#fff"/><path d="M23.407 61.864a2.76 2.76 0 01-2.765-2.766 2.76 2.76 0 012.765-2.765c1.58 0 2.766 1.185 2.766 2.765s-1.185 2.766-2.766 2.766zm0-3.95c-.691 0-1.284.592-1.284 1.283 0 .692.593 1.284 1.284 1.284.692 0 1.284-.592 1.284-1.284 0-.691-.592-1.284-1.284-1.284z" fill="#2B2929"/><path d="M55.012 65.123a5.926 5.926 0 100-11.852 5.926 5.926 0 000 11.852z" fill="#fff"/><path d="M58.173 54.062c.593.888.889 1.975.889 3.061 0 3.26-2.667 5.926-5.926 5.926-1.087 0-2.173-.296-3.062-.889 1.087 1.68 2.864 2.865 5.037 2.865 3.26 0 5.926-2.667 5.926-5.926-.099-2.074-1.185-3.951-2.864-5.037z" fill="#fff"/><path d="M55.012 65.814c-3.654 0-6.716-2.962-6.716-6.716 0-3.654 2.963-6.716 6.716-6.716 3.655 0 6.716 2.963 6.716 6.716 0 3.754-2.963 6.716-6.716 6.716zm0-11.851c-2.864 0-5.234 2.37-5.234 5.234s2.37 5.235 5.234 5.235 5.235-2.37 5.235-5.235c0-2.864-2.37-5.234-5.235-5.234z" fill="#2B2929"/><path d="M55.012 61.172a1.975 1.975 0 100-3.95 1.975 1.975 0 000 3.95z" fill="#fff"/><path d="M55.012 61.864a2.76 2.76 0 01-2.765-2.766 2.76 2.76 0 012.765-2.765 2.76 2.76 0 012.766 2.765c0 1.58-1.185 2.766-2.766 2.766zm0-3.95c-.691 0-1.284.592-1.284 1.283 0 .692.593 1.284 1.284 1.284.692 0 1.284-.592 1.284-1.284 0-.691-.592-1.284-1.284-1.284zm-3.95-14.816H47.11a.779.779 0 01-.79-.79c0-.395.296-.79.79-.79h3.95c.396 0 .79.296.79.79 0 .494-.295.79-.79.79z" fill="#2B2929"/><path d="M34.272 37.172H12.543a.779.779 0 01-.79-.79c0-.395.296-.79.79-.79h21.729a.78.78 0 01.79.79c0 .494-.297.79-.79.79zm0 5.926H12.543a.779.779 0 01-.79-.79c0-.395.296-.79.79-.79h21.729c.395 0 .79.296.79.79 0 .494-.297.79-.79.79zm0 5.927H12.543a.779.779 0 01-.79-.79c0-.396.296-.79.79-.79h21.729c.395 0 .79.296.79.79 0 .493-.297.79-.79.79zm0-17.778H12.543a.779.779 0 01-.79-.79c0-.395.296-.79.79-.79h21.729c.395 0 .79.296.79.79 0 .494-.297.79-.79.79z" fill="#FFBC57"/><path d="M34.272 25.32H12.543a.779.779 0 01-.79-.79c0-.395.296-.79.79-.79h21.729a.78.78 0 01.79.79c0 .494-.297.79-.79.79zm0-5.925H12.543a.779.779 0 01-.79-.79c0-.396.296-.79.79-.79h21.729c.395 0 .79.296.79.79 0 .493-.297.79-.79.79z" fill="#2B2929"/></svg>