<svg width="80" height="78" fill="none" xmlns="http://www.w3.org/2000/svg"><path d="M13.965 72.818c7.713 0 13.965-6.252 13.965-13.965s-6.252-13.965-13.965-13.965S0 51.14 0 58.853c0 7.712 6.252 13.965 13.965 13.965zM36.21 23.94c6.61 0 11.97-5.359 11.97-11.97C48.18 5.36 42.82 0 36.21 0c-6.611 0-11.97 5.36-11.97 11.97 0 6.611 5.359 11.97 11.97 11.97zm23.84 53.865c11.018 0 19.95-8.931 19.95-19.95 0-11.018-8.932-19.95-19.95-19.95-11.018 0-19.95 8.932-19.95 19.95 0 11.019 8.932 19.95 19.95 19.95z" fill="#FFBC57"/><path d="M41.197 72.718c17.63 0 31.92-14.29 31.92-31.92 0-17.629-14.29-31.92-31.92-31.92-17.629 0-31.92 14.291-31.92 31.92 0 17.63 14.291 31.92 31.92 31.92z" fill="#fff"/><path d="M41.197 73.417c-18.055 0-32.718-14.664-32.718-32.718 0-18.055 14.663-32.619 32.718-32.619 18.055 0 32.618 14.663 32.618 32.718 0 18.055-14.663 32.619-32.618 32.619zm0-63.84C23.94 9.576 9.975 23.54 9.975 40.797c0 17.157 13.965 31.222 31.222 31.222 17.157 0 31.222-13.965 31.222-31.222-.1-17.257-14.065-31.222-31.222-31.222z" fill="#2B2929"/><path d="M40.599 28.828l-6.285-4.19c-4.09-2.693-9.476-2.095-12.768 1.496L16.26 31.82c-.997 1.097-1.496 2.494-1.296 3.99l3.99 31.422c.2 1.596 1.695 2.793 3.291 2.593l21.746-2.693c1.596-.2 2.793-1.696 2.593-3.292l-3.89-31.421a4.676 4.676 0 00-2.094-3.591z" fill="#fff"/><path d="M21.945 70.524c-.798 0-1.596-.3-2.294-.798a3.537 3.537 0 01-1.397-2.494l-3.89-31.322c-.2-1.695.3-3.391 1.496-4.588l5.287-5.686c3.591-3.89 9.377-4.588 13.766-1.596l6.284 4.19c1.397.897 2.294 2.393 2.494 4.09l3.89 31.42c.1.998-.1 1.996-.798 2.794a3.537 3.537 0 01-2.494 1.396l-21.745 2.694c-.3-.1-.499-.1-.599-.1zm6.883-46.883c-2.494 0-4.888.998-6.683 2.993l-5.287 5.685c-.798.898-1.197 2.195-1.097 3.392l3.89 31.322c.1.598.399 1.097.898 1.496.498.399 1.097.499 1.695.499l21.746-2.694c.599-.1 1.097-.399 1.496-.898.4-.498.5-1.097.5-1.695l-3.891-31.422c-.2-1.197-.798-2.294-1.796-2.992l-6.384-4.09c-1.496-.997-3.291-1.596-5.087-1.596z" fill="#2B2929"/><path d="M46.085 19.053l-7.182-2.295c-4.589-1.496-9.676.599-11.87 4.988l-3.492 6.883a5.112 5.112 0 000 4.19l12.37 29.126c.697 1.497 2.393 2.195 3.89 1.596l20.249-8.678c1.496-.598 2.194-2.394 1.596-3.89L49.177 21.846c-.598-1.297-1.696-2.295-3.092-2.793z" fill="#fff"/><path d="M38.603 64.44c-1.496 0-2.793-.899-3.49-2.295l-12.27-29.028c-.698-1.596-.599-3.291.1-4.788l3.491-6.883c2.394-4.688 7.78-6.982 12.768-5.386l7.182 2.294c1.596.499 2.893 1.696 3.491 3.192l12.37 29.127a3.74 3.74 0 01-1.996 4.888L40.1 64.14c-.498.2-.997.3-1.495.3zM35.91 17.057c-3.391 0-6.483 1.895-8.08 5.087l-3.49 6.883c-.6 1.097-.6 2.394-.1 3.59l12.369 29.028c.498 1.097 1.795 1.696 2.992 1.197l20.15-8.579c1.097-.498 1.695-1.795 1.197-2.992l-12.47-29.127c-.498-1.098-1.396-1.995-2.593-2.394l-7.182-2.295c-.898-.299-1.895-.398-2.793-.398z" fill="#2B2929"/><path d="M35.81 31.422c-.698 0-1.296-.1-1.995-.4-1.296-.498-2.294-1.496-2.892-2.792a4.658 4.658 0 010-3.99c.499-1.297 1.496-2.295 2.793-2.893a4.658 4.658 0 013.99 0c1.297.499 2.294 1.496 2.893 2.793a4.658 4.658 0 010 3.99c-.5 1.297-1.497 2.294-2.793 2.893-.599.2-1.297.399-1.995.399zm0-8.978c-.498 0-.997.1-1.496.3a3.894 3.894 0 00-1.995 1.994c-.399.898-.399 1.896 0 2.893a3.894 3.894 0 001.995 1.995c.898.4 1.895.4 2.893 0a3.894 3.894 0 001.995-1.995c.4-.898.4-1.895 0-2.893-.399-.897-1.097-1.596-2.095-1.995-.299-.2-.798-.299-1.297-.299z" fill="#2B2929"/><path d="M37.406 27.431c-1.197 0-1.995-.598-2.394-1.097-.897-1.097-.997-2.793-.399-4.888.1-.399.5-.598.898-.498.4.1.599.498.499.897-.499 1.497-.4 2.893.1 3.492.299.399.798.498 1.396.498 2.394-.2 5.786-3.291 7.382-6.783 1.197-2.493.997-4.19.498-4.887-.299-.4-.798-.599-1.396-.599-1.496.1-3.491 1.397-5.187 3.392-.3.299-.698.399-1.097.1-.3-.3-.4-.699-.1-1.098 1.995-2.294 4.29-3.79 6.284-3.99 1.197-.1 2.195.3 2.793 1.197.998 1.397.798 3.79-.399 6.384-1.895 4.09-5.686 7.481-8.678 7.68 0 .2-.1.2-.2.2z" fill="#2B2929"/><path d="M39.7 57.556c-.1 0-.199 0-.299-.1-.399-.199-.598-.598-.399-.997l8.978-22.244c.2-.4.598-.599.997-.4.4.2.599.6.4.998l-8.978 22.244a.75.75 0 01-.698.5z" fill="#FFBC57"/><path d="M39.8 41.696c.699 1.496-.1 3.292-1.596 3.99-1.496.698-3.291-.1-3.99-1.596-.698-1.496.1-3.292 1.596-3.99 1.596-.699 3.392 0 3.99 1.596z" fill="#fff"/><path d="M37.007 46.584c-.498 0-.997-.1-1.396-.3-.898-.399-1.696-1.097-2.095-1.995-.798-1.895.1-4.09 1.995-4.987 1.895-.798 4.09.1 4.988 1.995a3.645 3.645 0 010 2.893c-.4.897-1.098 1.695-1.995 2.094-.5.2-.998.3-1.497.3zm0-5.986c-.299 0-.598.1-.897.2-1.197.499-1.696 1.795-1.197 2.992.2.599.698.998 1.197 1.197.598.2 1.197.2 1.695 0 .599-.199.998-.698 1.197-1.197.2-.598.2-1.197 0-1.695-.299-.998-1.097-1.496-1.995-1.496z" fill="#FFBC57"/><path d="M54.065 47.382c.698 1.496-.1 3.292-1.596 3.99-1.497.698-3.292-.1-3.99-1.596-.698-1.496.1-3.292 1.596-3.99 1.596-.599 3.391.1 3.99 1.596z" fill="#fff"/><path d="M51.272 52.37a3.816 3.816 0 01-3.491-2.295c-.798-1.895.1-4.09 1.995-4.988 1.895-.798 4.09.1 4.987 1.995.798 1.896-.1 4.09-1.995 4.988-.499.2-.998.3-1.496.3zm0-6.086c-.3 0-.599.1-.898.2-1.197.499-1.696 1.795-1.197 2.992.499 1.197 1.795 1.696 2.992 1.197 1.198-.498 1.696-1.795 1.198-2.992-.3-.798-1.197-1.397-2.095-1.397z" fill="#FFBC57"/><path d="M22.344 53.965a.682.682 0 01-.698-.698L19.85 38.604c-.1-.4.2-.798.699-.798.399-.1.798.2.798.698l1.795 14.663c0 .4-.3.699-.798.798.1 0 0 0 0 0zm1.098 8.479a.682.682 0 01-.699-.698l-.498-3.99c-.1-.4.199-.798.698-.798.399 0 .798.199.798.698l.498 3.99c-.1.3-.299.698-.797.798z" fill="#2B2929"/></svg>