<svg width="20" height="20" viewBox="0 0 20 20" fill="none" xmlns="http://www.w3.org/2000/svg">
<path d="M16.9842 3.01582C16.0729 2.07231 14.9829 1.31974 13.7776 0.802013C12.5724 0.284285 11.2761 0.0117711 9.96445 0.000372984C8.65277 -0.0110251 7.35196 0.238921 6.13792 0.735626C4.92387 1.23233 3.82091 1.96585 2.89338 2.89338C1.96585 3.82091 1.23233 4.92387 0.735626 6.13792C0.238921 7.35196 -0.0110251 8.65277 0.000372984 9.96445C0.0117711 11.2761 0.284285 12.5724 0.802013 13.7776C1.31974 14.9829 2.07231 16.0729 3.01582 16.9842C3.92709 17.9277 5.01714 18.6803 6.22237 19.198C7.4276 19.7157 8.72388 19.9882 10.0356 19.9996C11.3472 20.011 12.648 19.7611 13.8621 19.2644C15.0761 18.7677 16.1791 18.0342 17.1066 17.1066C18.0342 16.1791 18.7677 15.0761 19.2644 13.8621C19.7611 12.648 20.011 11.3472 19.9996 10.0356C19.9882 8.72388 19.7157 7.4276 19.198 6.22237C18.6803 5.01714 17.9277 3.92709 16.9842 3.01582ZM15.5913 15.5913C14.2992 16.8848 12.5986 17.6903 10.7792 17.8706C8.95983 18.0509 7.13422 17.5947 5.61342 16.5799C4.09263 15.5651 2.97074 14.0544 2.43889 12.3052C1.90704 10.5559 1.99813 8.6764 2.69666 6.98681C3.39518 5.29722 4.65792 3.90208 6.26973 3.0391C7.88154 2.17612 9.7427 1.89868 11.5361 2.25406C13.3296 2.60943 14.9443 3.57564 16.1052 4.98805C17.2661 6.40046 17.9014 8.1717 17.9029 10C17.9064 11.0385 17.7039 12.0674 17.3071 13.0272C16.9104 13.9869 16.3271 14.8584 15.5913 15.5913Z" fill="#FFBC57"/>
<path d="M13.7046 6.29537C13.6118 6.20178 13.5014 6.12749 13.3797 6.0768C13.258 6.0261 13.1275 6 12.9957 6C12.8638 6 12.7333 6.0261 12.6116 6.0768C12.49 6.12749 12.3795 6.20178 12.2867 6.29537L10 8.59204L7.71331 6.29537C7.52528 6.10734 7.27026 6.0017 7.00434 6.0017C6.73843 6.0017 6.4834 6.10734 6.29537 6.29537C6.10734 6.4834 6.0017 6.73843 6.0017 7.00434C6.0017 7.27026 6.10734 7.52528 6.29537 7.71331L8.59204 10L6.29537 12.2867C6.20178 12.3795 6.12749 12.49 6.0768 12.6116C6.0261 12.7333 6 12.8638 6 12.9957C6 13.1275 6.0261 13.258 6.0768 13.3797C6.12749 13.5014 6.20178 13.6118 6.29537 13.7046C6.3882 13.7982 6.49864 13.8725 6.62032 13.9232C6.74201 13.9739 6.87252 14 7.00434 14C7.13616 14 7.26668 13.9739 7.38836 13.9232C7.51005 13.8725 7.62049 13.7982 7.71331 13.7046L10 11.408L12.2867 13.7046C12.3795 13.7982 12.49 13.8725 12.6116 13.9232C12.7333 13.9739 12.8638 14 12.9957 14C13.1275 14 13.258 13.9739 13.3797 13.9232C13.5014 13.8725 13.6118 13.7982 13.7046 13.7046C13.7982 13.6118 13.8725 13.5014 13.9232 13.3797C13.9739 13.258 14 13.1275 14 12.9957C14 12.8638 13.9739 12.7333 13.9232 12.6116C13.8725 12.49 13.7982 12.3795 13.7046 12.2867L11.408 10L13.7046 7.71331C13.7982 7.62049 13.8725 7.51005 13.9232 7.38836C13.9739 7.26668 14 7.13616 14 7.00434C14 6.87252 13.9739 6.74201 13.9232 6.62032C13.8725 6.49864 13.7982 6.3882 13.7046 6.29537Z" fill="#2B2929"/>
</svg>
