<svg width="40" height="40" viewBox="0 0 40 40" fill="none" xmlns="http://www.w3.org/2000/svg">
<g clip-path="url(#clip0_68_385)">
<path d="M20 0C8.95422 0 0 8.95422 0 20C0 31.0458 8.95422 40 20 40C31.0458 40 40 31.0458 40 20C40 8.95422 31.0458 0 20 0Z" fill="#40B3E0"/>
<path d="M29.5861 11.6915L26.0139 29.702C26.0139 29.702 25.5144 30.9511 24.1405 30.3515L15.897 24.0315L12.8995 22.5828L7.85358 20.884C7.85358 20.884 7.0792 20.6094 7.0042 20.0098C6.92936 19.4103 7.87858 19.0856 7.87858 19.0856L27.9373 11.2169C27.9373 11.2169 29.5861 10.4925 29.5861 11.6915Z" fill="white"/>
<path d="M15.4091 29.3132C15.4091 29.3132 15.1684 29.2907 14.8686 28.3413C14.5689 27.3921 13.0452 22.3962 13.0452 22.3962L25.1603 14.7024C25.1603 14.7024 25.8599 14.2777 25.8349 14.7024C25.8349 14.7024 25.9597 14.7773 25.585 15.127C25.2103 15.4768 16.0677 23.6951 16.0677 23.6951" fill="#D2E5F1"/>
<path d="M19.2033 26.268L15.9427 29.2409C15.9427 29.2409 15.6878 29.4343 15.4089 29.313L16.0333 23.791" fill="#B5CFE4"/>
</g>
<defs>
<clipPath id="clip0_68_385">
<rect width="40" height="40" fill="white"/>
</clipPath>
</defs>
</svg>
