<svg width="36" height="36" fill="none" xmlns="http://www.w3.org/2000/svg"><path d="M23.939 12.33l-8.502 8.531-3.325-3.348a1.804 1.804 0 00-2.944 1.97c.09.22.224.418.391.586l4.602 4.608a1.798 1.798 0 002.552 0l9.778-9.792a1.807 1.807 0 00-2.552-2.556zM18.025 0a17.954 17.954 0 00-12.71 5.272A18.012 18.012 0 00.051 17.999a17.816 17.816 0 004.062 11.394l-3.595 3.6a1.801 1.801 0 00-.377 1.962 1.8 1.8 0 001.707 1.043h16.177a17.96 17.96 0 0012.71-5.271A18.012 18.012 0 0036 17.999c0-4.773-1.894-9.352-5.265-12.727A17.962 17.962 0 0018.025 0zm0 32.399H6.18l1.672-1.674a1.801 1.801 0 000-2.538 14.415 14.415 0 01-1.799-18.18 14.382 14.382 0 017.778-5.784 14.361 14.361 0 019.677.47 14.387 14.387 0 017.183 6.51 14.417 14.417 0 01-3.546 17.92 14.368 14.368 0 01-9.12 3.276z" fill="#fff"/></svg>