<svg width="39" height="40" fill="none" xmlns="http://www.w3.org/2000/svg"><path d="M26.48 22.281c-.192 0-.192-.191-.384-.191 2.875-2.109 4.409-5.367 4.409-9.009V11.74l.575-4.6c.383-3.067-1.725-5.75-4.6-6.325L24.754.43a38.55 38.55 0 00-11.5 0l-1.533.384C8.654 1.39 6.546 4.073 6.93 7.14l.575 4.6v1.341c0 3.45 1.534 6.9 4.409 9.009-.192 0-.192.191-.384.191C5.204 24.965.796 30.906.03 37.807c-.191.958.575 1.916 1.725 2.108 1.15.191 33.542 0 34.5 0h.192c.959-.192 1.725-1.15 1.725-2.108-.958-6.9-5.367-12.842-11.691-15.526zm-7.476 5.942l-3.258-3.258a17.539 17.539 0 016.325 0l-3.067 3.258zm0-7.475c-4.216 0-7.475-3.258-7.666-7.475H26.67c-.191 4.217-3.45 7.475-7.666 7.475z" fill="#535353"/></svg>