<svg width="30" height="34" fill="none" xmlns="http://www.w3.org/2000/svg"><path d="M29.1 13.05A14.167 14.167 0 007.165 2.6 14.267 14.267 0 00.899 13.05 14.1 14.1 0 005 24.433l8.834 8.85a1.667 1.667 0 002.366 0l8.8-8.85a14.1 14.1 0 004.1-11.383zm-6.434 9.033l-7.667 7.667-7.666-7.667a10.816 10.816 0 01-3.117-8.7 10.95 10.95 0 014.817-8.05 10.783 10.783 0 0111.933 0 10.95 10.95 0 014.817 8.017 10.815 10.815 0 01-3.117 8.733zM14.999 7a7.5 7.5 0 107.5 7.5A7.517 7.517 0 0015 7zm0 11.667a4.166 4.166 0 110-8.333 4.166 4.166 0 010 8.333z" fill="#B1B1B1"/></svg>