<svg width="33" height="25" fill="none" xmlns="http://www.w3.org/2000/svg"><path d="M6.251 24.783v-1.648c0-.632-.383-1.044-1.04-1.044-.328 0-.684.11-.93.467-.192-.302-.465-.467-.876-.467a.883.883 0 00-.766.384v-.33h-.575v2.638h.575v-1.456c0-.467.246-.687.63-.687.383 0 .574.247.574.687v1.456h.575v-1.456c0-.467.273-.687.63-.687.382 0 .574.247.574.687v1.456h.63zm8.51-2.637h-.93v-.797h-.575v.797h-.52v.522h.52v1.209c0 .604.247.961.903.961.247 0 .52-.082.712-.192l-.164-.495a.898.898 0 01-.493.138c-.274 0-.383-.165-.383-.44v-1.181h.93v-.522zm4.871-.055a.77.77 0 00-.684.384v-.33h-.575v2.638h.575V23.3c0-.44.192-.686.547-.686.11 0 .246.027.356.055l.164-.55c-.11-.027-.274-.027-.383-.027zm-7.36.274c-.274-.192-.658-.274-1.068-.274-.657 0-1.095.33-1.095.851 0 .44.329.687.903.77l.274.027c.301.055.465.137.465.275 0 .192-.219.33-.602.33s-.684-.138-.875-.275l-.274.44c.301.22.711.33 1.122.33.766 0 1.204-.358 1.204-.853 0-.467-.356-.714-.903-.796l-.274-.028c-.246-.027-.438-.082-.438-.247 0-.192.192-.302.493-.302.328 0 .657.137.82.22l.247-.468zm15.268-.274a.77.77 0 00-.684.384v-.33h-.575v2.638h.575V23.3c0-.44.192-.686.547-.686.11 0 .247.027.356.055l.164-.55c-.11-.027-.273-.027-.383-.027zm-7.333 1.373c0 .797.547 1.374 1.395 1.374.383 0 .657-.082.93-.302l-.273-.467a1.103 1.103 0 01-.684.247c-.465 0-.794-.33-.794-.852 0-.494.329-.824.794-.851.246 0 .465.082.684.247l.274-.467c-.274-.22-.548-.302-.93-.302-.849 0-1.396.577-1.396 1.373zm5.308 0v-1.318h-.574v.33c-.192-.248-.465-.385-.821-.385-.739 0-1.314.577-1.314 1.373 0 .797.575 1.374 1.314 1.374.383 0 .656-.137.82-.385v.33h.575v-1.319zm-2.107 0c0-.467.301-.851.794-.851.465 0 .793.357.793.851 0 .467-.328.852-.793.852-.493-.027-.794-.385-.794-.852zm-6.868-1.373c-.766 0-1.313.55-1.313 1.373 0 .825.547 1.374 1.34 1.374.383 0 .767-.11 1.067-.357l-.273-.412a1.304 1.304 0 01-.766.275c-.356 0-.712-.165-.794-.632h1.943v-.22c.027-.852-.465-1.401-1.204-1.401zm0 .494c.356 0 .602.22.657.632h-1.368c.054-.357.3-.632.711-.632zm14.257.88v-2.363h-.575v1.373c-.192-.247-.465-.384-.821-.384-.739 0-1.314.577-1.314 1.373 0 .797.575 1.374 1.314 1.374.383 0 .657-.137.82-.385v.33h.576v-1.319zm-2.107 0c0-.468.3-.852.793-.852.465 0 .794.357.794.851 0 .467-.329.852-.794.852-.492-.027-.793-.385-.793-.852zm-19.21 0v-1.32h-.575v.33c-.191-.247-.465-.384-.82-.384-.74 0-1.314.577-1.314 1.373 0 .797.575 1.374 1.314 1.374.383 0 .656-.137.82-.385v.33h.575v-1.319zm-2.134 0c0-.468.3-.852.793-.852.465 0 .794.357.794.851 0 .467-.329.852-.794.852-.492-.027-.793-.385-.793-.852z" fill="#000"/><path d="M20.62 2H12v15.55h8.62V2z" fill="#FF5F00"/><path d="M12.626 9.89a9.932 9.932 0 013.749-7.774A9.766 9.766 0 0010.3 0C4.855 0 .45 4.423.45 9.89c0 5.468 4.405 9.892 9.85 9.892a9.766 9.766 0 006.075-2.116 9.89 9.89 0 01-3.749-7.775z" fill="#EB001B"/><path d="M32.328 9.89c0 5.468-4.406 9.892-9.85 9.892a9.766 9.766 0 01-6.076-2.116 9.85 9.85 0 003.75-7.775 9.932 9.932 0 00-3.75-7.775A9.766 9.766 0 0122.477 0c5.445 0 9.851 4.45 9.851 9.89z" fill="#F79E1B"/></svg>