<svg width="24" height="24" fill="none" xmlns="http://www.w3.org/2000/svg"><path d="M3.992 21.56c-.099-.023-.198-.046-.296-.072a3.087 3.087 0 01-1.423-.82c-.683-.695-1.051-1.526-1.083-2.496a3.974 3.974 0 01.118-1.078c.102-.416.26-.81.467-1.184.33-.6.76-1.12 1.269-1.581.383-.348.8-.65 1.248-.912.419-.246.81-.53 1.183-.837.47-.388.91-.81 1.344-1.235.384-.376.763-.756 1.164-1.114a8.64 8.64 0 01.951-.753c.423-.282.873-.504 1.376-.612a3.131 3.131 0 011.138-.034c.432.064.849.18 1.249.353a3.703 3.703 0 011.509 1.199c.272.363.486.758.678 1.166.203.433.382.876.57 1.315.21.495.433.985.695 1.457.26.47.561.915.902 1.333a7.8 7.8 0 011.035 1.639 6.01 6.01 0 01.49 1.58c.066.428.08.856.025 1.287a3.647 3.647 0 01-.71 1.786 3.63 3.63 0 01-1.414 1.115c-.415.19-.848.313-1.305.344a3.296 3.296 0 01-.487 0c-.023-.002-.045-.002-.067-.002-.023.008-.044-.005-.067-.006-.018 0-.036-.012-.055-.004l-.409-.07c-.014-.015-.034-.01-.05-.015l-.047-.009a10.52 10.52 0 01-.04-.006c-.346-.072-.672-.202-.995-.338-.548-.23-1.078-.5-1.62-.741-.44-.195-.888-.37-1.35-.505a6.793 6.793 0 00-.978-.2 5.365 5.365 0 00-.797-.04 20.08 20.08 0 00-1.57.103c-.553.051-1.106.102-1.662.095a4.045 4.045 0 01-.674-.052c-.045-.008-.092-.01-.138-.019-.059-.013-.119-.013-.174-.036zM17.564 1.429c.719.214 1.214.68 1.539 1.335.223.45.327.928.356 1.425a4.78 4.78 0 01-.103 1.272 5.506 5.506 0 01-.95 2.117 4.703 4.703 0 01-1.164 1.137 3.466 3.466 0 01-1.335.562 2.504 2.504 0 01-1.023-.018 2.347 2.347 0 01-1.4-.936 3.22 3.22 0 01-.556-1.364 4.356 4.356 0 01-.053-1.041c.015-.24.047-.476.096-.71a5.513 5.513 0 01.591-1.565c.294-.524.661-.99 1.119-1.385a3.899 3.899 0 011.298-.76 2.86 2.86 0 011.102-.152c.208.014.29.03.483.083zM.134 7.143a3.04 3.04 0 01.228-.632 2.78 2.78 0 01.792-1.015c.39-.305.834-.47 1.333-.48.404-.009.784.09 1.143.272.412.208.757.5 1.047.854.451.548.732 1.174.882 1.86.078.36.111.724.1 1.091a4.218 4.218 0 01-.052.532 3.692 3.692 0 01-.289.966 2.79 2.79 0 01-.808 1.054c-.414.325-.886.49-1.416.484a2.415 2.415 0 01-1.096-.29 3.354 3.354 0 01-1.138-.994 4.25 4.25 0 01-.66-1.32 4.509 4.509 0 01-.199-1.433l.011-.258c-.002-.04.008-.079.006-.118-.002-.017.004-.032.006-.048 0-.021.014-.041.005-.064l.055-.308c.024-.025.02-.058.028-.087.006-.022.004-.047.022-.066zm5.701-4.026c.113-.612.3-1.148.603-1.643.228-.375.51-.705.865-.969A2.43 2.43 0 018.597.006c.483-.035.93.077 1.349.313.368.21.671.49.925.823a4.4 4.4 0 01.799 1.776c.088.412.126.827.114 1.247a5.532 5.532 0 01-.065.712c-.048.297-.12.59-.222.873-.213.594-.525 1.127-.99 1.565-.29.272-.62.481-1 .607-.426.14-.858.155-1.292.045a2.58 2.58 0 01-1.043-.55 3.664 3.664 0 01-.925-1.218 4.886 4.886 0 01-.467-1.75 5.4 5.4 0 01.055-1.332zm17.49 8.415a.86.86 0 00-.013.07 4.328 4.328 0 01-.747 1.599c-.278.38-.606.713-.987.992a3.82 3.82 0 01-1.634.716c-.362.062-.724.06-1.083-.022a2.206 2.206 0 01-1.292-.824 2.488 2.488 0 01-.481-1.192c-.055-.39-.036-.78.046-1.166.18-.848.591-1.575 1.192-2.202a4.32 4.32 0 01.668-.57c.498-.342 1.04-.578 1.645-.66a2.681 2.681 0 011.021.05 2.2 2.2 0 011.252.825c.286.38.432.812.484 1.278a3.032 3.032 0 01-.025.844 4.415 4.415 0 00-.047.262z" fill="#040404"/></svg>