<svg width="40" height="40" fill="none" xmlns="http://www.w3.org/2000/svg"><path fill-rule="evenodd" clip-rule="evenodd" d="M16.384 12.126c0-.867-.016-1.734 0-2.608a1.054 1.054 0 00-1.121-1.115c-1.014.026-2.031 0-3.048 0-.11 0-.22-.013-.326-.04a.27.27 0 01-.186-.423.979.979 0 01.17-.205L19.268.32a.977.977 0 011.448 0L28.1 7.705c.137.137.296.29.205.502-.091.212-.326.2-.505.202-.978 0-1.93.023-2.892 0a1.066 1.066 0 00-1.144 1.151v5.217a1.052 1.052 0 01-1.112 1.115c-1.734-.02-3.468 0-5.216 0a.98.98 0 01-1.076-1.076v-2.69h.023zm0 15.735v-2.846a.975.975 0 01.637-.989.98.98 0 01.413-.058h5.307a1.026 1.026 0 011.034 1.03c-.017 1.872 0 3.747 0 5.618a1.132 1.132 0 00.3.864.976.976 0 00.72.3h2.79c.12-.001.24.012.356.04a.264.264 0 01.183.41c-.048.09-.11.173-.183.245l-7.23 7.212a.978.978 0 01-1.39.046 4.981 4.981 0 01-.136-.13l-5.927-5.938a162.39 162.39 0 01-1.216-1.23c-.127-.13-.274-.27-.19-.475.086-.206.291-.202.474-.202h2.995a.994.994 0 001.066-1.057v-2.843l-.003.003zM8.32 19.987v7.653c.002.13-.012.26-.042.388a.261.261 0 01-.411.176 1.222 1.222 0 01-.284-.219L.345 20.75a1 1 0 01.02-1.526l7.253-7.25c.14-.141.297-.294.505-.203.21.091.196.303.196.492v7.724zm23.527 0v-7.414a1.712 1.712 0 01.05-.456.245.245 0 01.146-.18.249.249 0 01.231.02c.097.046.186.11.261.186a4475.83 4475.83 0 007.172 7.156.978.978 0 01.046 1.35 3.31 3.31 0 01-.14.15l-4.636 4.623-2.425 2.42c-.14.14-.287.293-.503.205-.215-.088-.185-.29-.198-.473v-7.587h-.004z" fill="#FF090B"/></svg>