<svg width="30" height="26" fill="none" xmlns="http://www.w3.org/2000/svg"><path d="M0 13.636v6.819a1.364 1.364 0 001.364 1.363h1.363a4.09 4.09 0 108.182 0h8.182a4.09 4.09 0 108.182 0h1.363A1.364 1.364 0 0030 20.454V4.091A4.09 4.09 0 0025.91 0H13.635a4.09 4.09 0 00-4.09 4.09v2.728H6.817a4.091 4.091 0 00-3.273 1.637L.273 12.818a.832.832 0 00-.096.191l-.082.15a1.37 1.37 0 00-.095.477zm21.818 8.182a1.364 1.364 0 112.728 0 1.364 1.364 0 01-2.728 0zM12.273 4.091a1.364 1.364 0 011.363-1.364H25.91a1.363 1.363 0 011.364 1.364v15H26.21a4.09 4.09 0 00-6.055 0h-7.881v-15zm-2.728 8.182H4.091l1.636-2.182a1.364 1.364 0 011.091-.546h2.727v2.728zm-4.09 9.545a1.364 1.364 0 112.727 0 1.364 1.364 0 01-2.727 0zM2.727 15h6.818v3.79a4.091 4.091 0 00-5.754.3H2.727V15z" fill="#fff"/></svg>