<svg width="34" height="34" fill="none" xmlns="http://www.w3.org/2000/svg"><path d="M33.665 10.033a2.092 2.092 0 000-.316l-3.333-8.334a1.667 1.667 0 00-1.667-1.05H5.332a1.667 1.667 0 00-1.55 1.05L.449 9.717a2.083 2.083 0 000 .316.967.967 0 00-.117.3A6.666 6.666 0 003.665 16v16a1.667 1.667 0 001.667 1.667h23.333A1.667 1.667 0 0030.332 32V16.067a6.667 6.667 0 003.333-5.734c.016-.1.016-.2 0-.3zm-15 20.3h-3.333v-6.666h3.333v6.666zm8.334 0h-5V22a1.666 1.666 0 00-1.667-1.667h-6.667A1.666 1.666 0 0012 22v8.333H7V17a6.667 6.667 0 005-2.3 6.665 6.665 0 0010 0 6.666 6.666 0 005 2.3v13.333zm0-16.666a3.333 3.333 0 01-3.334-3.334 1.667 1.667 0 10-3.333 0 3.333 3.333 0 11-6.667 0 1.667 1.667 0 10-3.333 0 3.335 3.335 0 11-6.667.25l2.8-6.916h21.067l2.8 6.916a3.333 3.333 0 01-3.333 3.084z" fill="#FFBC57"/></svg>