<svg width="44" height="14" fill="none" xmlns="http://www.w3.org/2000/svg"><path d="M11.772.312L8.294 9.334l-.339-1.87c-.848-2.275-2.714-4.632-4.92-5.526L6.258 13.56h3.733L15.589.312h-3.817zm2.969 13.249L16.946.312h3.563l-2.205 13.249H14.74zm21.206-4.714c.255-.732 1.442-3.74 1.442-3.74s.255-.73.51-1.3l.254 1.138.848 3.82h-3.054v.082zM40.273.312H37.56c-.848 0-1.527.244-1.866 1.138l-5.26 12.111h3.733s.594-1.626.763-2.032h4.58c.086.488.425 1.95.425 1.95h3.308c-.085.082-2.969-13.167-2.969-13.167zm-9.076.325a9.4 9.4 0 00-3.223-.569c-3.478 0-6.023 1.788-6.023 4.39 0 1.869 1.781 3.007 3.139 3.576 1.357.65 1.866 1.056 1.866 1.625 0 .895-1.103 1.301-2.12 1.301-1.443 0-2.206-.163-3.31-.732l-.508-.162-.509 2.926c.848.406 2.375.65 3.987.731 3.732 0 6.192-1.788 6.192-4.551 0-1.545-.933-2.683-2.969-3.577-1.272-.65-2.036-1.056-1.95-1.625 0-.57.678-1.138 2.035-1.138.933 0 1.866.162 2.63.488l.339.162c-.085 0 .424-2.845.424-2.845z" fill="#1B548E"/><path d="M5.563.068H0v.256c4.336 1.193 7.118 4.006 8.345 7.33L7.118 1.263C6.872.324 6.3.068 5.563.068z" fill="#E89F3E"/></svg>