<svg width="40" height="40" fill="none" xmlns="http://www.w3.org/2000/svg"><path d="M10.511 16.67c.779 0 1.46-.682 1.46-1.46 0-.78-.681-1.46-1.46-1.46-.778 0-1.46.68-1.46 1.46 0 .778.682 1.46 1.46 1.46zm0 8.66c.779 0 1.46-.68 1.46-1.459 0-.778-.681-1.46-1.46-1.46-.778 0-1.46.681-1.46 1.46 0 .779.682 1.46 1.46 1.46zm18.881-8.66c.778 0 1.46-.682 1.46-1.46 0-.78-.682-1.46-1.46-1.46-.78 0-1.46.68-1.46 1.46 0 .778.68 1.46 1.46 1.46z" fill="#2B2929"/><path d="M39.903 2.07A1.08 1.08 0 0038.833 1H1.07A1.08 1.08 0 000 2.07v26.279c0 .584.487 1.07 1.07 1.07h5.937L5.45 38.47c0 .292 0 .584.195.778.194.195.39.39.681.39h.195c.486 0 .973-.39 1.07-.876l1.557-9.44h21.704l1.557 9.44c.097.486.486.876 1.07.876h.195c.584-.098.973-.682.876-1.168l-1.557-9.051h5.936A1.08 1.08 0 0040 28.348V10.83l-.097-8.76zm-2.044 18.59v6.617H21.022V20.66h16.837zm0-8.76v6.618H21.022V11.9h16.837zm0-8.856v6.618H21.022V3.044h16.837zM18.88 20.659v6.618H2.044V20.66H18.88zm0-8.759v6.618H2.044V11.9H18.88zm0-8.856v6.618H2.044V3.044H18.88z" fill="#2B2929"/><path d="M10.511 7.813c.779 0 1.46-.682 1.46-1.46 0-.779-.681-1.46-1.46-1.46-.778 0-1.46.681-1.46 1.46 0 .778.682 1.46 1.46 1.46zm18.881 0c.778 0 1.46-.682 1.46-1.46 0-.779-.682-1.363-1.46-1.363-.78 0-1.46.682-1.46 1.46 0 .779.68 1.363 1.46 1.363zm0 17.517c.778 0 1.46-.68 1.46-1.459 0-.778-.682-1.46-1.46-1.46-.78 0-1.46.681-1.46 1.46 0 .779.68 1.46 1.46 1.46z" fill="#2B2929"/></svg>