<svg width="40" height="40" fill="none" xmlns="http://www.w3.org/2000/svg"><path d="M14.61 26.049H7.39a1.852 1.852 0 00-1.853 1.854v4.195c0 1.073.878 1.853 1.853 1.853h7.22a1.852 1.852 0 001.854-1.853v-4.195c.097-1.074-.781-1.854-1.854-1.854zm.097 6.049H7.39v-4.195h7.317v4.195z" fill="#2B2929"/><path d="M35.878 20.878h-5.951l.39-.39c.293-.39.293-.976-.098-1.366a1.045 1.045 0 00-1.365.098l-.976 1.073v-3.708a.978.978 0 00-.976-.975.978.978 0 00-.975.975v3.708l-.976-1.073c-.195-.196-.39-.293-.683-.293-.292 0-.488.097-.683.195-.39.39-.39.976-.097 1.366l.293.39H3.976a.978.978 0 00-.976.976v17.17c0 .488.39.976.976.976h32c.487 0 .975-.39.975-.976V21.756a1.06 1.06 0 00-1.073-.878zm-9.756 1.854v15.414h-7.024V22.732h7.024zm1.854 15.414V22.732H35v15.414h-7.024zm-23.122 0V22.732h12.292v15.414H4.854zM35.878 0H18.122a.978.978 0 00-.975.976v4.878c-.196-.195-.39-.293-.683-.293h-2.537V.976A.978.978 0 0012.951 0H9.05a.978.978 0 00-.976.976V5.56H5.537c-.39 0-.78.293-.878.585l-1.561 4.586c-.098.195-.098.585.097.78.195.293.488.39.78.39h32c.489 0 .976-.39.976-.975V.976C36.854.39 36.464 0 35.878 0zM19 10.049V1.854h7.025v8.195H19zm8.976 0V1.854H35v8.195h-7.024zm-17.951-3.61V1.854h2.048v4.585c0 .488.39.976.976.976h2.83l.975 2.634H5.244l.976-2.634h2.829c.488 0 .976-.39.976-.976z" fill="#2B2929"/><path d="M15.39 23.22c-.683 0-1.268.585-1.268 1.268s.585 1.268 1.268 1.268 1.269-.585 1.269-1.268c-.098-.683-.586-1.268-1.269-1.268zm9.074 2.439c.683 0 1.268-.586 1.268-1.269 0-.683-.585-1.268-1.268-1.268s-1.269.585-1.269 1.268c0 .78.586 1.268 1.269 1.268zm5.17-2.439c-.683 0-1.268.585-1.268 1.268s.585 1.268 1.268 1.268 1.268-.585 1.268-1.268c-.097-.683-.585-1.268-1.268-1.268zm-5.17-16.293c-.683 0-1.269.585-1.269 1.268s.586 1.268 1.269 1.268a1.29 1.29 0 001.268-1.268c-.098-.683-.585-1.268-1.268-1.268zm5.17 0c-.683 0-1.268.585-1.268 1.268s.585 1.268 1.268 1.268 1.268-.585 1.268-1.268c-.097-.683-.585-1.268-1.268-1.268zm-17.17 18.732c.682 0 1.268-.586 1.268-1.269 0-.683-.585-1.268-1.268-1.268s-1.269.585-1.269 1.268c0 .78.586 1.268 1.269 1.268zm-2.927 0c.683 0 1.268-.586 1.268-1.269 0-.683-.585-1.268-1.268-1.268s-1.268.585-1.268 1.268c.097.78.585 1.268 1.268 1.268zm-2.83 0c.683 0 1.269-.586 1.269-1.269 0-.683-.586-1.268-1.269-1.268a1.29 1.29 0 00-1.268 1.268c0 .78.585 1.268 1.268 1.268z" fill="#2B2929"/></svg>