<svg width="40" height="40" fill="none" xmlns="http://www.w3.org/2000/svg"><path d="M30.366 0H8.707A3.706 3.706 0 005 3.707V36.39C5 38.342 6.659 40 8.707 40h21.659a3.706 3.706 0 003.707-3.707V3.707A3.706 3.706 0 0030.366 0zm1.756 3.707V36.39c0 .976-.78 1.756-1.756 1.756H8.707c-.975 0-1.756-.78-1.756-1.756V3.707c0-.975.78-1.756 1.756-1.756h21.659c.976 0 1.756.78 1.756 1.756z" fill="#2B2929"/><path d="M29.195 32.78l1.951-2.926c.098-.195.195-.488.098-.78-.098-.294-.195-.489-.39-.586-.488-.293-1.074-.195-1.366.293l-1.464 2.243-3.122-4.683 3.122-4.683 1.464 2.244c.292.39.878.586 1.366.293.487-.293.585-.878.292-1.366l-1.951-2.927 1.951-2.926c.195-.195.195-.39.195-.683-.097-.293-.195-.488-.39-.586-.488-.292-1.073-.195-1.366.293l-1.463 2.244L25 13.56l3.122-4.683 1.463 2.244c.293.39.878.585 1.366.293.195-.098.39-.39.39-.586.098-.292 0-.488-.097-.78l-1.951-2.927 1.95-2.927c.294-.488.196-1.073-.292-1.366-.195-.097-.488-.195-.78-.097-.293.097-.488.195-.586.39l-1.463 2.244-1.463-2.244c-.098-.195-.39-.39-.586-.39-.293 0-.488 0-.78.097-.488.293-.586.878-.293 1.366l1.951 2.927-3.122 4.683-3.122-4.683 1.951-2.927c.293-.488.196-1.073-.292-1.366-.195-.097-.488-.195-.78-.097-.293.097-.488.195-.586.39l-1.463 2.244-1.464-2.244c-.293-.488-.878-.585-1.366-.293-.488.293-.585.878-.292 1.366l1.95 2.927-3.121 4.683-3.025-4.586 1.952-2.926c.292-.488.195-1.074-.293-1.366-.195-.195-.488-.293-.78-.195-.196 0-.39.195-.586.39L11.05 5.463 9.488 3.122c-.293-.39-.878-.585-1.366-.293-.39.39-.585.976-.293 1.366L9.78 7.122l-1.95 2.927c-.293.488-.196 1.073.292 1.366.39.292 1.073.195 1.366-.293l1.463-2.244 3.122 4.683-3.122 4.683L9.488 16c-.293-.488-.878-.585-1.366-.293-.488.293-.585.878-.293 1.366L9.78 20l-1.95 2.927c-.293.488-.196 1.073.292 1.366.39.292 1.073.195 1.366-.293l1.463-2.244 3.122 4.683-3.122 4.683-1.463-2.244c-.293-.488-.878-.585-1.366-.293-.195.098-.39.39-.39.586-.098.292 0 .488.097.78l1.951 2.927-1.95 2.927c-.293.488-.196 1.073.292 1.366.39.292 1.073.195 1.366-.293l1.463-2.244 1.464 2.244c.292.39.878.585 1.365.293.488-.293.586-.878.293-1.366l-1.951-2.927 3.122-4.683 3.122 4.683-1.951 2.927c-.293.488-.196 1.073.292 1.366.39.292 1.073.195 1.366-.293l1.463-2.244L21 36.878c.293.39.878.585 1.366.293.488-.293.585-.878.293-1.366l-1.952-2.927 3.122-4.683 3.122 4.683L25 35.805c-.293.488-.195 1.073.293 1.366.39.292 1.073.195 1.366-.293l1.463-2.244 1.463 2.244c.195.293.488.39.78.39.196 0 .391-.097.586-.195.488-.292.585-.878.293-1.366l-2.049-2.926zM26.854 20l-3.122 4.683L20.61 20l3.122-4.683L26.854 20zm-4.293 6.439l-3.122 4.683-3.122-4.683 3.122-4.683 3.122 4.683zm-6.146-12.878l3.122-4.683 3.122 4.683-3.122 4.683-3.122-4.683zM18.365 20l-3.121 4.683L12.122 20l3.122-4.683L18.366 20z" fill="#2B2929"/></svg>