<svg width="40" height="40" fill="none" xmlns="http://www.w3.org/2000/svg"><path d="M37.613 0H1.915C1.366 0 1 .366 1 .915v33.502c0 .457.366.915.915.915h1.74l-.641 3.661c0 .275 0 .458.183.64.183.184.366.367.549.367h.183c.458 0 .824-.275.915-.732l.641-3.936h28.65l.64 3.936c.092.457.458.732.916.732h.183c.458-.092.824-.55.732-1.007l-.64-3.661h1.647a.917.917 0 00.916-.916V.916c0-.55-.367-.916-.916-.916zm-.824 1.74V33.5H26.63V1.74h10.16zM22.053 23.432v7.322H14.73v-7.322h7.323zm0-9.703v7.872H14.73V13.73h7.323zm0-9.153v7.414H14.73V4.577h7.323zm1.739 27.002V3.66a.917.917 0 00-.916-.915h-8.238V1.739h10.16v31.762H14.73v-1.007h8.238c.458 0 .824-.457.824-.915zM3.838 3.66v27.92c0 .458.366.915.915.915h8.238v1.007H2.739V1.74H12.9v1.007H4.661c-.457.092-.823.458-.823.915zm9.061 19.771v7.323H5.577v-7.322h7.322zm0-9.702v7.872H5.577V13.73h7.322zm0-9.153v7.414H5.577V4.577h7.322z" fill="#2B2929"/><path d="M11.435 18.856c.64 0 1.19-.55 1.19-1.19 0-.64-.55-1.19-1.19-1.19-.641 0-1.19.55-1.19 1.19 0 .64.549 1.19 1.19 1.19zm4.759 0c.641 0 1.19-.55 1.19-1.19 0-.64-.549-1.19-1.19-1.19-.64 0-1.19.55-1.19 1.19 0 .64.55 1.19 1.19 1.19z" fill="#2B2929"/></svg>