<svg width="40" height="40" fill="none" xmlns="http://www.w3.org/2000/svg"><path d="M31.78 0H7.878A.874.874 0 007 .878v33.464c0 .487.39.877.878.877h1.756l-.585 3.61c0 .195 0 .488.195.683.195.195.39.293.585.39l.098.098c.488 0 .878-.293.878-.78l.683-3.903H28.17l.683 3.902c.097.488.488.781.878.781h.195c.195 0 .488-.195.585-.39.098-.195.195-.488.195-.683l-.585-3.61h1.756c.488 0 .878-.39.878-.878V.878C32.658.39 32.268 0 31.78 0zM18.902 1.854V33.56H8.854V1.854h10.048zm11.903 0V33.56H20.756V1.854h10.049z" fill="#2B2929"/><path d="M23.39 21.073c.488 0 .878-.39.878-.878v-4.878a.874.874 0 00-.878-.878.874.874 0 00-.878.878v4.878c0 .39.39.878.878.878zm-7.122 0c.488 0 .878-.39.878-.878v-4.878a.874.874 0 00-.878-.878.874.874 0 00-.878.878v4.878c0 .39.39.878.878.878z" fill="#2B2929"/></svg>