<svg width="40" height="40" fill="none" xmlns="http://www.w3.org/2000/svg"><path d="M20.317 40a1.366 1.366 0 100-2.732 1.366 1.366 0 000 2.732zm8.781 0a1.366 1.366 0 100-2.732 1.366 1.366 0 000 2.732zm-17.561 0a1.366 1.366 0 100-2.732 1.366 1.366 0 000 2.732zm17.268-19.415c1.073-5.463 1.561-10.926 1.561-16.39C30.366 1.854 28.512 0 26.268 0H14.561c-2.341 0-4.293 1.854-4.293 4.195 0 5.464.586 10.927 1.561 16.39a3.39 3.39 0 00-2.146 3.122v1.659c0 1.268.976 2.244 2.244 2.244h7.317v4.097c-3.122.195-6.049 1.171-8.293 2.732-.195.195-.39.39-.39.683 0 .293 0 .585.195.78.293.488.976.586 1.464.293 1.95-1.366 4.487-2.244 7.122-2.439v1.561c0 .585.487.976.975.976s.976-.488.976-.976v-1.56c2.634.194 5.17.975 7.122 2.438.195.098.39.195.585.195.293 0 .683-.195.878-.39.195-.195.195-.488.195-.78 0-.293-.195-.488-.39-.683-2.341-1.659-5.268-2.635-8.293-2.732v-4.098h7.317a2.208 2.208 0 002.244-2.244v-1.658c0-1.463-.878-2.732-2.146-3.22zm-15.61 1.756h14.342c.78 0 1.366.586 1.366 1.366v1.659a.21.21 0 01-.195.195H12.024a.21.21 0 01-.196-.195v-1.659c0-.78.586-1.366 1.366-1.366zm13.659-2.048H13.878c-.975-5.269-1.56-10.732-1.56-16.098 0-1.17.975-2.146 2.146-2.146H26.17c1.17 0 2.146.975 2.146 2.146 0 5.366-.488 10.732-1.463 16.098z" fill="#2B2929"/><path d="M10.756 17.366v-2.634c0-.878-.78-1.659-1.658-1.659h-2.44c-.878 0-1.658.78-1.658 1.659v2.634c0 1.56 1.268 2.927 2.927 2.927 1.56 0 2.83-1.366 2.83-2.927zm-2.049-2.244v2.341c0 .488-.39.878-.878.878a.874.874 0 01-.878-.878v-2.341h1.756zm25.268-2.049h-2.439c-.878 0-1.658.78-1.658 1.659v2.634c0 1.56 1.268 2.927 2.927 2.927 1.56 0 2.927-1.269 2.927-2.927v-2.634c0-.976-.78-1.659-1.757-1.659zm-.292 2.049v2.341c0 .488-.39.878-.878.878a.874.874 0 01-.878-.878v-2.341h1.756zm-13.366-7.61a.978.978 0 00-.976.976v9.17c0 .586.488.976.976.976s.976-.488.976-.976V8.585c.097-.585-.39-1.073-.976-1.073z" fill="#2B2929"/></svg>