<svg width="40" height="40" fill="none" xmlns="http://www.w3.org/2000/svg"><path d="M35.922 4H4.078C3.498 4 3 4.498 3 5.078V25.23c0 .58.498 1.078 1.078 1.078h5.224L7.81 34.932c-.083.58.249 1.16.829 1.244.58.082 1.161-.332 1.244-.83l1.576-9.039H28.54l1.576 9.04c.083.497.498.911 1.078.911h.166c.58-.082.995-.663.83-1.243l-1.493-8.625h5.224c.58 0 1.078-.497 1.078-1.078V5.078A1.097 1.097 0 0035.922 4zm-1.078 12.19v7.961H5.156v-7.96h29.688zm0-10.034v7.961H5.156v-7.96h29.688z" fill="#2B2929"/><path d="M20 11.63a1.493 1.493 0 100-2.986 1.493 1.493 0 000 2.985zm0 10.033c.83 0 1.493-.663 1.493-1.492 0-.83-.664-1.493-1.493-1.493-.83 0-1.493.663-1.493 1.493 0 .829.664 1.492 1.493 1.492z" fill="#2B2929"/></svg>