<svg width="8" height="8" viewBox="0 0 8 8"  xmlns="http://www.w3.org/2000/svg">
<path d="M7.70994 0.29003C7.61698 0.196302 7.50637 0.121908 7.38452 0.0711393C7.26266 0.0203707 7.13195 -0.00576782 6.99994 -0.00576782C6.86793 -0.00576782 6.73722 0.0203707 6.61536 0.0711393C6.4935 0.121908 6.3829 0.196302 6.28994 0.29003L3.99994 2.59003L1.70994 0.29003C1.52164 0.101727 1.26624 -0.00406123 0.999939 -0.00406122C0.733637 -0.00406122 0.478243 0.101727 0.289939 0.29003C0.101635 0.478334 -0.00415277 0.733729 -0.00415277 1.00003C-0.00415278 1.26633 0.101635 1.52173 0.289939 1.71003L2.58994 4.00003L0.289939 6.29003C0.196211 6.38299 0.121816 6.49359 0.0710478 6.61545C0.0202791 6.73731 -0.00585938 6.86802 -0.00585938 7.00003C-0.00585938 7.13204 0.0202791 7.26275 0.0710478 7.38461C0.121816 7.50647 0.196211 7.61707 0.289939 7.71003C0.382902 7.80376 0.493503 7.87815 0.615362 7.92892C0.737221 7.97969 0.867927 8.00583 0.999939 8.00583C1.13195 8.00583 1.26266 7.97969 1.38452 7.92892C1.50638 7.87815 1.61698 7.80376 1.70994 7.71003L3.99994 5.41003L6.28994 7.71003C6.3829 7.80376 6.4935 7.87815 6.61536 7.92892C6.73722 7.97969 6.86793 8.00583 6.99994 8.00583C7.13195 8.00583 7.26266 7.97969 7.38452 7.92892C7.50637 7.87815 7.61698 7.80376 7.70994 7.71003C7.80367 7.61707 7.87806 7.50647 7.92883 7.38461C7.9796 7.26275 8.00574 7.13204 8.00574 7.00003C8.00574 6.86802 7.9796 6.73731 7.92883 6.61545C7.87806 6.49359 7.80367 6.38299 7.70994 6.29003L5.40994 4.00003L7.70994 1.71003C7.80367 1.61707 7.87806 1.50647 7.92883 1.38461C7.9796 1.26275 8.00574 1.13204 8.00574 1.00003C8.00574 0.868019 7.9796 0.737313 7.92883 0.615454C7.87806 0.493594 7.80367 0.382993 7.70994 0.29003Z" />
</svg>
