<svg width="33" height="33" viewBox="0 0 33 33"  xmlns="http://www.w3.org/2000/svg">
<path d="M31.5011 12.9332L31.5008 12.9346L31.5011 12.9332ZM31.4939 12.8958C31.4985 12.9157 31.4997 12.929 31.4999 12.9355L31.4071 13.0305L24.6473 19.948L24.1151 20.4927L24.2407 21.2439L25.8881 31.0934C25.9086 31.2283 25.875 31.3203 25.8359 31.3783C25.8217 31.3995 25.8065 31.4163 25.7923 31.4292H25.7922H25.7915H25.7908H25.7902H25.7895H25.7887H25.788H25.7873H25.7866H25.7859H25.7852H25.7845H25.7838H25.783H25.7823H25.7816H25.7809H25.7801H25.7794H25.7786H25.7779H25.7772H25.7764H25.7757H25.7749H25.7741H25.7734H25.7726H25.7719H25.7711H25.7703H25.7696H25.7688H25.768H25.7672H25.7664H25.7656H25.7648H25.7641H25.7633H25.7625H25.7617H25.7608H25.76H25.7592H25.7584H25.7576H25.7568H25.7559H25.7551H25.7543H25.7534H25.7526H25.7518H25.7509H25.7501H25.7492H25.7484H25.7475H25.7467H25.7458H25.7449H25.744H25.7432H25.7423H25.7414H25.7405H25.7396H25.7387H25.7379H25.737H25.7361H25.7351H25.7342H25.7333H25.7324H25.7315H25.7306H25.7296H25.7287H25.7278H25.7268H25.7259H25.7249H25.724H25.723H25.7221H25.7211H25.7202C25.6698 31.4292 25.6296 31.4291 25.595 31.4288L17.2155 26.7755L16.4873 26.3711L15.7591 26.7755L7.35055 31.4449L7.3146 31.4648L7.2798 31.4867C7.26776 31.4943 7.2597 31.4979 7.25537 31.4995C7.25432 31.4993 7.25296 31.4989 7.25125 31.4983C7.23603 31.4936 7.18025 31.469 7.1186 31.3891C7.11766 31.3831 7.1167 31.3762 7.11575 31.3682C7.10949 31.3157 7.10695 31.2553 7.10607 31.149L8.73385 21.4168L8.85948 20.6657L8.32723 20.121L1.57627 13.2125C1.51445 13.1458 1.5 13.0851 1.5 13.0412C1.5 12.9964 1.51507 12.9341 1.58029 12.8657L1.63784 12.8053L1.70233 12.7958L11.1001 11.4123L11.9058 11.2937L12.2452 10.5533L16.3308 1.63949C16.4003 1.53672 16.4672 1.50698 16.4841 1.50166C16.4858 1.50112 16.4872 1.50075 16.4882 1.50049C16.4926 1.50209 16.5006 1.50569 16.5127 1.51327L16.5627 1.54473L16.6122 1.57069C16.6137 1.57393 16.6154 1.57735 16.6171 1.58096L20.9038 10.5738L21.248 11.2958L22.0394 11.4123L31.4371 12.7958L31.4554 12.7985C31.4724 12.8287 31.4862 12.8631 31.4939 12.8958ZM7.12508 31.4201C7.12558 31.4213 7.12582 31.422 7.12584 31.4221L7.12508 31.4201Z" stroke="#B1B1B1" stroke-width="3"/>
</svg>
